<svg version="1.1" id="Layer_1" xmlns="http://www.w3.org/2000/svg" xmlns:xlink="http://www.w3.org/1999/xlink" x="0px" y="0px"
	 width="100%" viewBox="0 0 600 600" enable-background="new 0 0 600 600" xml:space="preserve">
<path fill="#5893C2" opacity="1.000000" stroke="none" 
	d="
M1.000000,64.000000 
	C1.000000,43.091377 1.000000,22.182753 1.000000,1.000000 
	C13.352878,1.000000 25.707781,1.000000 38.520596,1.391631 
	C37.560963,8.284189 35.779102,14.730282 34.790909,21.295830 
	C31.124620,45.654572 43.539848,64.848312 67.263222,71.394890 
	C71.169724,72.472900 72.509964,74.370018 73.098373,78.150436 
	C76.199471,98.074333 88.996513,112.375404 107.494942,115.659149 
	C115.111694,117.011246 123.070145,116.855598 130.858780,116.693672 
	C137.391083,116.557861 139.358109,118.771141 136.633118,124.931915 
	C130.619675,138.527252 124.746735,152.188980 123.587593,167.226044 
	C122.987091,175.016006 123.278580,182.872177 122.803444,190.676300 
	C122.696068,192.439865 121.442924,195.202515 120.095390,195.655487 
	C107.410950,199.919312 94.518753,203.258148 80.916542,201.087296 
	C70.716331,199.459396 64.796608,193.336151 64.078468,183.040619 
	C63.768101,178.591187 63.743481,173.943710 64.677170,169.621231 
	C66.889885,159.377670 69.987717,149.327194 72.280327,139.098373 
	C74.154076,130.738373 73.710625,122.468018 68.498734,115.144821 
	C56.468166,98.240692 22.726164,99.424721 11.523389,117.127525 
	C9.639737,120.104095 9.263295,123.169434 12.258446,125.660164 
	C15.094599,128.018661 18.001492,127.193222 20.308603,124.815887 
	C25.426109,119.542641 31.764912,116.931969 38.840443,115.825890 
	C54.090527,113.441940 62.764713,122.635818 59.147987,137.497345 
	C57.455246,144.452988 54.938534,151.226044 53.541687,158.230713 
	C52.149090,165.214050 51.032005,172.375580 50.945499,179.473022 
	C50.683720,200.950363 63.568382,214.033142 85.111549,214.863998 
	C97.078079,215.325516 108.673157,213.188873 120.043427,209.682739 
	C123.026108,208.763000 124.527359,209.058655 125.168549,212.635117 
	C127.159195,223.738617 131.335327,234.080185 137.381302,243.597412 
	C146.769913,258.376434 157.168930,272.091705 174.296127,278.907288 
	C176.248856,279.684357 177.890427,282.243744 178.843597,284.353027 
	C182.324692,292.056427 187.914566,297.147003 195.693695,300.478607 
	C219.766342,310.788391 247.391708,294.446899 256.489868,277.811768 
	C257.030975,276.822418 257.811218,275.889465 258.675903,275.163330 
	C265.474640,269.453796 272.321045,263.801056 279.289673,258.017212 
	C280.418701,265.057343 283.965912,272.858459 276.160797,279.742401 
	C273.711090,281.902985 271.981842,284.917236 270.069916,287.643890 
	C264.341797,295.813080 258.345825,303.186523 248.838165,307.920502 
	C239.036621,312.800781 231.539948,321.372040 231.238953,332.966888 
	C231.008759,341.834747 228.244843,349.423035 224.915802,357.265686 
	C216.134109,377.953949 216.989304,398.247528 229.170776,417.403564 
	C232.454300,422.567078 234.423843,427.058838 232.914337,433.459412 
	C231.253326,440.502411 236.536942,444.931244 243.704071,443.490509 
	C246.303070,442.968079 248.796753,441.939423 251.365143,441.239594 
	C252.615387,440.898895 254.086639,440.290955 255.184555,440.646912 
	C261.621155,442.733795 267.977051,445.069733 274.360168,447.321594 
	C273.829895,452.178375 274.001343,452.468292 267.296295,456.432953 
	C242.628357,471.019012 238.172485,498.222351 241.094604,516.257080 
	C245.288895,542.143188 268.899719,566.022095 299.736420,564.218262 
	C308.879303,563.683411 316.819977,560.250488 325.338867,557.044434 
	C326.459747,558.066711 327.233490,559.047058 328.034058,560.406860 
	C329.630829,567.138611 334.245239,569.467468 340.653107,565.514893 
	C353.941162,557.318604 367.485199,549.217957 379.478760,539.325684 
	C393.499054,527.761780 400.486603,511.657715 402.145111,493.440125 
	C402.433624,490.270905 402.726074,487.495667 406.469635,485.842224 
	C421.372437,479.260193 432.929596,468.654938 441.584991,454.936005 
	C450.764526,440.386292 453.268250,424.298309 451.870361,407.433441 
	C451.585632,403.998444 450.106384,401.110779 446.087830,401.225861 
	C441.970276,401.343842 440.379944,404.190613 440.151337,407.922821 
	C440.029388,409.913971 440.139496,411.920929 440.179077,413.920074 
	C440.503540,430.320679 435.396790,444.750549 424.276733,456.868683 
	C418.189911,463.501801 411.349304,469.222870 402.368073,473.078491 
	C396.521576,447.647705 385.641998,427.151184 357.100769,423.469360 
	C360.536652,418.460083 364.313293,413.970551 366.955231,408.890869 
	C372.457977,398.310638 367.955872,387.962158 356.655487,384.145691 
	C354.370331,383.373901 351.967438,382.950714 349.326904,382.294250 
	C357.080444,376.715820 364.572968,371.631775 371.724060,366.105896 
	C381.604919,358.470520 391.679871,350.983063 400.758789,342.459839 
	C404.876556,338.594055 409.184814,336.677155 414.168427,334.800385 
	C430.211853,328.758453 446.581268,323.255981 461.890686,315.661987 
	C490.277191,301.581360 502.937561,276.928894 497.738800,248.238724 
	C496.828583,243.215607 498.161194,240.971588 502.180817,238.295853 
	C521.384888,225.512253 533.833374,208.070862 537.261597,184.853912 
	C538.055664,179.476486 536.303406,176.334778 532.519836,175.944809 
	C527.598877,175.437622 526.787964,178.790863 525.632019,182.649597 
	C523.399048,190.104004 521.151306,197.714203 517.588318,204.573456 
	C511.867889,215.586044 502.730377,223.529037 491.620453,229.551758 
	C489.915405,227.011078 488.876160,224.254898 486.892944,222.712250 
	C477.270386,215.227325 477.029022,205.553833 478.971344,194.712631 
	C480.242401,187.618317 480.056274,180.262924 480.546753,172.652924 
	C482.586060,173.163620 484.149475,173.652176 485.749268,173.935379 
	C488.986847,174.508530 491.956909,173.997299 493.081726,170.457016 
	C494.221619,166.869415 492.522552,164.314621 489.233673,162.810760 
	C487.114258,161.841675 484.969055,160.887833 482.755402,160.175873 
	C479.540710,159.141937 477.649292,157.318573 477.692688,153.717194 
	C477.712555,152.071960 477.240753,150.423065 477.018463,148.772263 
	C474.840179,132.594727 469.346924,117.800262 458.848206,105.080345 
	C455.312347,100.796432 451.819275,96.477219 447.492493,91.176804 
	C466.090485,94.297401 480.118622,86.400192 493.779602,77.410072 
	C502.267548,71.824265 510.432648,65.679504 519.256714,60.695847 
	C525.549927,57.141556 532.504639,54.313396 539.515381,52.590202 
	C547.782776,50.558113 553.704102,57.217995 551.368286,65.370659 
	C550.153564,69.610130 548.106812,73.790031 545.624695,77.446098 
	C541.799561,83.080376 537.390747,88.335732 533.026672,93.583130 
	C524.535217,103.793404 517.173645,114.617470 513.701721,127.649345 
	C510.298309,140.424011 517.416443,151.572067 530.419067,154.028168 
	C537.328064,155.333221 543.609070,153.279861 549.775330,150.581650 
	C554.353638,148.578247 558.794312,146.224197 563.464294,144.474594 
	C571.289001,141.543091 574.075439,143.896652 572.810059,152.248856 
	C572.338867,155.358963 571.385498,158.413956 570.450439,161.431671 
	C569.020630,166.046280 567.346863,170.585037 565.901062,175.194992 
	C563.333679,183.380798 562.886841,191.681580 566.239563,199.672943 
	C567.446289,202.549393 569.772400,205.403152 572.347839,207.140350 
	C575.278625,209.117264 578.926331,208.473984 581.345215,205.492096 
	C583.770447,202.502335 582.656921,199.747116 580.428894,196.951767 
	C579.046875,195.217911 577.555908,192.907288 577.565796,190.862579 
	C577.588013,186.282974 578.065674,181.594238 579.180664,177.156708 
	C580.963623,170.061249 583.981323,163.248901 585.433899,156.104782 
	C587.088135,147.969040 587.286926,139.520020 579.921326,133.531113 
	C573.084717,127.972305 565.494812,129.561356 558.119507,132.487396 
	C551.933105,134.941757 545.931824,137.868195 539.721924,140.256302 
	C535.662537,141.817398 531.464478,141.830261 528.006897,138.575500 
	C524.483093,135.258438 526.230347,131.472046 527.423645,127.864830 
	C531.282715,116.199280 538.987000,106.976410 546.655762,97.719284 
	C554.103516,88.728889 561.697815,79.783134 564.456970,67.992035 
	C567.814636,53.643314 558.885376,40.724762 544.239929,39.389153 
	C539.890015,38.992455 534.932617,39.303822 531.037170,41.044422 
	C521.208862,45.436050 511.631836,50.490837 502.318054,55.905884 
	C492.249878,61.759544 482.799988,68.683960 472.684357,74.446053 
	C466.292206,78.087189 459.098114,80.007393 451.499908,78.171127 
	C443.693573,76.284569 440.726013,71.900055 442.825073,64.234818 
	C444.043060,59.787052 445.784332,55.337048 448.103333,51.362514 
	C456.413452,37.119530 467.729156,25.347933 479.720703,14.191830 
	C484.465057,9.778004 489.239349,5.396331 494.000000,1.000001 
	C514.020874,1.000000 534.041809,1.000000 554.674072,1.308768 
	C566.201050,18.825626 580.897278,31.007053 601.000000,36.000000 
	C601.000000,127.687561 601.000000,219.375122 600.580322,311.560852 
	C590.390381,313.418304 580.620056,314.777588 570.849792,316.136841 
	C570.629456,315.711609 570.409180,315.286407 570.188904,314.861176 
	C572.834473,311.317749 575.490295,307.781860 578.123535,304.229309 
	C583.377991,297.140656 589.057495,290.318420 593.748352,282.873840 
	C598.784058,274.882019 594.739319,268.022308 585.518677,267.853607 
	C583.522766,267.817078 581.475586,267.715485 579.533203,268.078308 
	C563.826050,271.012421 548.123291,273.975555 532.455017,277.108643 
	C528.501953,277.899139 526.775574,281.178253 528.180359,284.647614 
	C529.724121,288.460175 533.033813,288.943787 536.531616,288.275482 
	C544.382751,286.775452 552.176086,284.964752 560.041138,283.548248 
	C565.986511,282.477478 572.006592,281.821289 579.450500,280.776001 
	C577.617798,283.375427 576.721008,284.698029 575.773438,285.983185 
	C568.561157,295.764954 561.053772,305.345093 554.215027,315.380981 
	C549.232056,322.693451 553.036072,329.387787 561.881836,329.871063 
	C563.541382,329.961731 565.235962,330.010223 566.874634,329.786682 
	C578.255615,328.234222 589.626160,326.604767 601.000000,325.000000 
	C601.000000,325.750000 601.000000,326.500000 600.742798,327.839813 
	C591.819397,342.602020 582.974182,356.670959 574.661560,371.047760 
	C573.260193,373.471405 572.870544,378.228577 574.330566,380.097961 
	C576.006226,382.243530 580.329407,383.372406 583.382935,383.166809 
	C589.299500,382.768433 595.132446,381.126587 601.000000,380.000000 
	C601.000000,386.354401 601.000000,392.708801 600.619629,399.363678 
	C598.270020,399.402771 596.302246,398.928680 594.331116,398.914154 
	C580.119324,398.809235 568.858948,405.786957 558.397827,414.346313 
	C548.998352,422.037109 540.122742,430.388336 530.518311,437.803467 
	C518.318726,447.222107 504.856537,443.219574 499.205627,428.772369 
	C497.280426,423.850403 496.084808,418.598145 494.996338,413.404480 
	C493.394104,405.759155 492.717590,397.889343 490.708771,390.365601 
	C485.272308,370.004333 468.689575,357.615936 447.632446,357.838470 
	C428.273132,358.043030 412.859619,366.931671 399.786163,380.451813 
	C397.282349,383.041168 395.177979,386.197754 393.577942,389.433167 
	C391.678680,393.273621 393.381622,397.302155 396.798370,398.689484 
	C400.516113,400.199066 403.176178,398.600952 405.030548,394.057800 
	C405.702637,392.411224 406.718628,390.810852 407.906921,389.484222 
	C416.159821,380.270569 426.440369,374.337128 438.405548,371.468048 
	C457.182556,366.965576 473.264801,376.419800 478.409088,394.977966 
	C479.648560,399.449371 479.996643,404.161011 481.087158,408.681976 
	C483.301361,417.861267 484.645081,427.455750 488.318817,436.035004 
	C495.970276,453.903412 518.125793,464.100403 537.249939,449.045197 
	C547.703430,440.815826 557.330933,431.508118 568.013184,423.609406 
	C574.300232,418.960602 581.681091,415.454834 589.054688,412.761993 
	C592.434937,411.527496 596.982056,413.488251 601.000000,414.000000 
	C601.000000,476.333344 601.000000,538.666687 601.000000,601.000000 
	C594.243042,601.000000 587.590393,601.000000 580.292419,600.698975 
	C576.980286,595.795105 574.716431,590.893738 571.569702,586.646423 
	C562.781982,574.785278 551.138611,567.965454 536.144775,571.485046 
	C520.286499,575.207581 508.729187,584.645813 504.000000,601.000000 
	C454.645782,601.000000 405.291534,601.000000 355.497070,600.648804 
	C348.899292,595.755310 343.312195,589.884155 336.466217,586.945740 
	C321.936188,580.708862 302.626312,588.057922 296.000000,601.000000 
	C271.312439,601.000000 246.624878,601.000000 221.477600,600.608765 
	C223.911469,591.026611 226.921326,581.869995 229.649261,572.630188 
	C230.997314,568.064209 233.158539,567.302551 237.235825,569.647888 
	C243.716476,573.375732 250.285950,576.986328 257.026398,580.210449 
	C260.636230,581.937073 264.623352,582.125549 267.141174,577.969910 
	C269.061981,574.799683 267.537231,571.291199 262.885529,568.760498 
	C255.587082,564.789978 248.255905,560.844666 240.731232,557.333008 
	C228.870132,551.797668 222.787491,554.354187 218.636581,566.722534 
	C214.831238,578.061157 211.525742,589.567505 208.000000,601.000000 
	C173.312439,601.000000 138.624878,601.000000 103.482048,600.626953 
	C102.455704,595.224915 98.758530,593.306030 94.582504,592.250671 
	C88.288811,590.660217 81.810463,589.751526 75.585266,587.949585 
	C63.471054,584.443115 50.959114,581.660400 39.563065,576.483887 
	C24.531384,569.655823 17.803085,554.950256 19.963779,538.928467 
	C21.998009,523.844543 38.584549,506.033020 53.378021,503.170013 
	C62.856876,501.335541 70.620934,504.653015 76.227463,512.172180 
	C79.981003,517.206238 83.148575,522.775146 85.899712,528.434570 
	C89.608513,536.064087 92.304268,544.189392 96.069038,551.787659 
	C107.050133,573.950439 131.812683,585.814941 153.874603,579.833252 
	C176.071564,573.815063 186.334152,555.973633 179.474869,534.180847 
	C177.097321,526.627075 173.112762,519.575745 169.817856,512.315063 
	C167.076599,506.274475 163.568100,500.476227 161.661682,494.187988 
	C158.973465,485.320984 161.914490,479.408752 170.047211,475.067322 
	C179.346329,470.103241 189.206192,468.524872 199.562027,471.058472 
	C213.554306,474.481781 220.759430,484.374695 218.939041,498.639343 
	C218.459732,502.395203 216.202820,506.001312 214.398224,509.487793 
	C212.808640,512.558899 211.783264,515.505981 214.756866,518.066772 
	C217.940887,520.808838 220.957962,519.411438 223.615631,516.897888 
	C224.334610,516.217896 224.951599,515.408936 225.517593,514.591492 
	C235.098892,500.754456 233.368210,481.050079 221.532837,469.047729 
	C205.624619,452.915161 173.708542,452.799286 156.560379,468.720917 
	C150.716919,474.146393 147.927689,480.680267 147.796814,488.654663 
	C147.639221,498.259094 151.461609,506.459229 156.017807,514.495911 
	C161.275986,523.770752 166.698578,532.944031 168.341507,543.783875 
	C169.415665,550.871216 167.366165,556.562134 161.896851,561.102905 
	C150.242065,570.778931 133.980713,570.544800 120.231781,560.811218 
	C111.906517,554.917419 107.826149,546.304199 103.871124,537.405762 
	C99.751938,528.138000 95.841011,518.690186 90.736145,509.966522 
	C80.594292,492.635162 63.633713,485.745178 46.716026,491.412506 
	C36.888458,494.704651 28.662115,500.622101 21.559109,508.106171 
	C3.187847,527.463013 1.147960,554.230652 16.925600,574.635742 
	C25.972797,586.336304 38.787613,592.260681 52.785614,595.950073 
	C58.877541,597.555725 64.929741,599.312134 71.000000,601.000000 
	C47.701317,601.000000 24.402630,601.000000 1.000000,601.000000 
	C1.000000,526.312500 1.000000,451.624908 1.400731,376.353882 
	C19.835821,372.285767 49.965015,384.771851 53.359718,397.139526 
	C53.086319,397.315491 52.827702,397.596039 52.532558,397.642029 
	C51.382786,397.821045 50.219570,397.911285 49.064678,398.060272 
	C39.097359,399.346191 29.884609,402.521820 22.435606,409.520691 
	C14.280195,417.183228 10.834847,426.611481 13.800701,437.599640 
	C16.745949,448.511505 24.796204,453.878021 35.535679,455.534729 
	C55.602306,458.630310 76.928963,440.498383 77.095604,420.311218 
	C77.110161,418.548218 77.097527,416.785034 77.097527,414.380676 
	C87.454216,417.404541 96.022751,422.060608 102.835434,429.327728 
	C114.596817,441.873566 119.942284,456.038208 112.706741,473.091431 
	C112.007149,474.740265 112.768387,478.026123 114.071884,479.223053 
	C115.389954,480.433380 118.844933,480.957642 120.256081,480.053528 
	C122.562798,478.575531 124.775421,475.958099 125.622162,473.362793 
	C129.667679,460.962677 128.698883,448.539856 123.261581,436.846741 
	C113.946968,416.815338 96.942207,406.211273 76.488197,400.023712 
	C73.911140,399.244141 71.145439,397.256226 69.651863,395.032440 
	C61.614235,383.065338 50.931919,374.370117 38.039490,368.226807 
	C26.295128,362.630585 13.816772,361.279266 1.000000,362.000000 
	C1.000000,340.645782 1.000000,319.291534 1.352286,297.474976 
	C2.594020,295.852722 3.571102,294.749176 4.358908,293.523956 
	C10.209870,284.424377 15.935928,275.242920 21.898504,266.217499 
	C23.835817,263.285004 26.360697,260.740723 29.243023,257.263428 
	C31.191181,261.408936 32.821651,264.307648 33.952953,267.389618 
	C37.797668,277.863556 41.437386,288.412567 45.213047,298.912140 
	C47.353443,304.864319 49.299282,310.914185 51.888523,316.670013 
	C54.934151,323.440460 61.966702,324.075592 66.693779,318.314056 
	C67.745743,317.031860 68.706169,315.641327 69.501694,314.187378 
	C75.493881,303.235504 81.423569,292.249481 87.398872,281.288330 
	C88.804710,278.709473 90.310013,276.184784 92.383972,272.561890 
	C94.931976,277.872375 97.172752,282.077423 99.008080,286.452545 
	C105.192215,301.194427 111.059845,316.071136 117.391846,330.748199 
	C121.198151,339.570831 127.685654,340.747406 133.203156,333.011597 
	C141.495926,321.384674 148.710968,308.988861 156.367386,296.909302 
	C156.627060,296.499573 156.758392,295.985504 156.858383,295.501251 
	C157.684998,291.497589 156.970383,288.012054 152.772751,286.447662 
	C148.672302,284.919434 146.484665,287.191803 144.532394,290.725800 
	C139.784851,299.319733 134.620041,307.682770 129.657684,316.158936 
	C129.005066,317.273682 128.553207,318.505951 128.008347,319.683777 
	C127.424690,319.316925 126.841034,318.950104 126.257378,318.583282 
	C123.223557,311.041840 120.397156,303.408508 117.106941,295.980682 
	C112.257530,285.032837 107.456009,274.033875 101.919289,263.429901 
	C97.464745,254.898499 89.423622,254.656555 83.402679,262.198944 
	C82.575935,263.234619 81.837677,264.367035 81.220863,265.540039 
	C76.880951,273.793396 72.620537,282.088654 68.256844,290.329285 
	C66.114105,294.375793 63.805138,298.334290 60.992443,303.368896 
	C59.906258,300.655151 59.264099,299.192657 58.729294,297.691895 
	C54.871857,286.867157 51.235298,275.958038 47.108391,265.237457 
	C45.086960,259.986359 42.571793,254.824310 39.559910,250.079071 
	C34.958832,242.829956 27.674068,241.841522 21.336565,247.653305 
	C17.575676,251.102219 14.534655,255.380325 11.414379,259.472015 
	C7.802858,264.207855 4.459678,269.148346 1.000003,274.000000 
	C1.000000,207.979111 1.000000,141.958206 1.321295,75.600021 
	C4.766717,76.701775 7.769625,78.635025 11.049401,79.439484 
	C14.265534,80.228340 17.460299,79.056694 18.481808,75.352432 
	C19.440956,71.874298 17.456743,69.807785 14.453402,68.367310 
	C12.241916,67.306618 10.263810,65.653381 7.972898,64.894791 
	C5.789266,64.171722 3.335185,64.265388 1.000000,64.000000 
M438.032471,548.501465 
	C438.902863,559.303223 439.773224,570.104980 440.742218,582.130737 
	C435.528839,580.461670 431.991760,579.571899 428.644714,578.213867 
	C416.760162,573.391846 404.926086,568.444214 393.105896,563.465820 
	C389.981415,562.149841 387.117035,562.052185 385.175446,565.125671 
	C383.110901,568.393738 384.485138,571.177368 387.188629,573.449158 
	C387.821442,573.980896 388.525421,574.491638 389.282684,574.802002 
	C404.683716,581.113831 419.884735,588.003662 435.577698,593.483582 
	C447.443024,597.626953 453.450806,592.924866 452.977966,580.372375 
	C452.370911,564.255127 450.692993,548.177612 449.448975,532.085144 
	C448.906921,525.073364 448.296661,518.066833 447.717407,511.057892 
	C448.179718,510.812225 448.642059,510.566559 449.104370,510.320892 
	C456.180634,514.595093 463.175568,519.011780 470.353424,523.108032 
	C479.605957,528.388245 488.834564,533.760193 498.394409,538.436523 
	C506.118744,542.214905 511.960205,538.512329 512.762817,529.958801 
	C513.008789,527.337463 512.947205,524.570251 512.387085,522.009644 
	C508.971680,506.394897 505.391052,490.816101 501.797821,475.240906 
	C501.506744,473.979309 501.021729,472.300171 500.079559,471.746735 
	C498.085907,470.575531 495.460419,469.004883 493.599304,469.499390 
	C491.751312,469.990448 489.981537,472.608093 489.194672,474.679565 
	C488.567078,476.331635 489.272797,478.610962 489.724609,480.532379 
	C492.279602,491.397705 494.993896,502.225739 497.524139,513.096680 
	C498.293457,516.402039 498.650757,519.803345 499.196777,523.160706 
	C498.778656,523.476990 498.360504,523.793335 497.942383,524.109619 
	C491.253784,520.201843 484.592651,516.245972 477.869904,512.397766 
	C468.481750,507.023773 459.288757,501.227051 449.557129,496.560364 
	C441.695770,492.790558 435.806091,496.686768 434.525452,505.326843 
	C434.283325,506.960297 434.203491,508.661652 434.356659,510.302917 
	C435.517090,522.738220 436.754272,535.166260 438.032471,548.501465 
M144.555069,437.184448 
	C155.009476,438.570709 165.434174,439.304474 175.609085,435.533752 
	C199.029221,426.854370 213.982040,402.159729 210.900345,377.280701 
	C208.264923,356.004517 191.921967,337.257385 171.903122,332.546661 
	C166.994202,331.391510 162.744186,333.164825 162.152191,336.851685 
	C161.377838,341.674103 164.600830,343.052094 168.507156,344.089142 
	C189.031555,349.538025 201.732849,370.437439 197.525223,391.195465 
	C192.934067,413.845673 172.348282,432.339233 142.711929,422.731567 
	C139.586075,421.718231 136.040314,421.436157 134.980148,424.756409 
	C134.184052,427.249664 134.918045,431.045197 136.446533,433.227295 
	C137.843307,435.221313 141.221542,435.827362 144.555069,437.184448 
M570.047607,444.142059 
	C568.062195,445.833252 565.669434,447.223236 564.158875,449.265625 
	C555.791565,460.578796 551.075378,473.476929 548.007263,487.114136 
	C542.989319,509.417725 549.127991,527.562805 567.751648,541.125793 
	C570.543457,543.158997 573.577332,545.361633 576.815918,546.104126 
	C579.000183,546.604797 583.106445,545.322815 583.885498,543.673096 
	C584.849365,541.632019 583.795532,538.110413 582.590393,535.750916 
	C581.729553,534.065369 579.160950,533.273315 577.394592,532.025513 
	C563.753723,522.389404 556.655457,509.971375 559.790955,492.668549 
	C562.323120,478.694733 566.812744,465.671936 575.161987,454.034943 
	C578.982178,448.710449 577.098511,444.783234 570.047607,444.142059 
M500.157715,337.293915 
	C511.418854,353.425232 530.056396,361.212952 547.963501,357.269623 
	C553.643738,356.018799 556.632141,352.829559 555.904724,348.794708 
	C555.192505,344.844208 551.987610,343.623047 545.831543,344.520599 
	C538.323425,345.615265 530.913879,345.537689 523.843994,342.080200 
	C512.831299,336.694458 506.714203,327.677277 504.053040,315.991791 
	C503.190063,312.202301 501.379333,309.391296 496.910278,310.024384 
	C493.387207,310.523438 491.241028,314.157318 492.665497,318.694092 
	C494.592407,324.830963 497.356079,330.705078 500.157715,337.293915 
M77.028999,363.484131 
	C82.756035,367.764282 88.443100,372.099457 94.226250,376.302399 
	C97.314453,378.546783 101.179413,379.626190 103.538017,376.210663 
	C104.771675,374.424225 104.549347,369.505676 103.105110,368.349579 
	C95.086273,361.930542 86.626556,356.018005 77.951950,350.508026 
	C76.585602,349.640167 72.312622,351.032745 71.280632,352.616394 
	C70.282562,354.147949 71.297256,357.469086 72.259911,359.634247 
	C72.913658,361.104675 75.002922,361.936859 77.028999,363.484131 
M55.510159,538.818298 
	C56.600956,535.399719 55.586540,532.322449 52.137970,531.871338 
	C49.607765,531.540405 46.247025,532.662903 44.336121,534.356140 
	C43.216324,535.348450 43.309719,539.837036 44.466358,540.780762 
	C46.275936,542.257141 49.448547,542.404785 52.044556,542.407654 
	C53.088467,542.408875 54.134472,540.539246 55.510159,538.818298 
M23.924150,188.760529 
	C19.892719,185.626724 16.644352,185.561539 14.044373,188.645874 
	C11.939774,191.142548 11.776177,193.856033 14.092207,196.191940 
	C16.932079,199.056198 20.430300,198.646683 22.842623,196.017303 
	C24.166653,194.574142 23.888838,191.661346 23.924150,188.760529 
M482.800354,560.403015 
	C484.267944,556.992981 483.046783,554.127014 479.931549,553.032959 
	C477.947510,552.336182 474.776245,552.749512 473.154449,553.992310 
	C471.797485,555.032166 470.834045,558.686218 471.636902,559.948120 
	C472.821503,561.809998 475.616730,563.106079 477.946381,563.596436 
	C479.205536,563.861450 480.922211,561.952881 482.800354,560.403015 
M163.040741,379.425751 
	C160.402283,382.170258 160.044662,385.468811 163.100067,387.532684 
	C164.997925,388.814697 168.681488,389.137115 170.624573,388.111389 
	C172.062607,387.352325 172.998642,383.395050 172.362091,381.450562 
	C171.253906,378.065399 167.963852,377.326263 164.518158,378.466736 
	C164.210892,378.568451 163.940491,378.781586 163.040741,379.425751 
M577.185547,104.830872 
	C580.508484,103.834549 581.694824,101.298851 580.827393,98.314423 
	C580.363892,96.719902 578.515503,94.539360 577.150146,94.432220 
	C575.206909,94.279739 572.491699,95.242905 571.244568,96.702202 
	C568.376831,100.057861 571.014404,104.017273 577.185547,104.830872 
z"/>
<path fill="#2B577C" opacity="1.000000" stroke="none" 
	d="
M493.531738,1.000001 
	C489.239349,5.396331 484.465057,9.778004 479.720703,14.191830 
	C467.729156,25.347933 456.413452,37.119530 448.103333,51.362514 
	C445.784332,55.337048 444.043060,59.787052 442.825073,64.234818 
	C440.726013,71.900055 443.693573,76.284569 451.499908,78.171127 
	C459.098114,80.007393 466.292206,78.087189 472.684357,74.446053 
	C482.799988,68.683960 492.249878,61.759544 502.318054,55.905884 
	C511.631836,50.490837 521.208862,45.436050 531.037170,41.044422 
	C534.932617,39.303822 539.890015,38.992455 544.239929,39.389153 
	C558.885376,40.724762 567.814636,53.643314 564.456970,67.992035 
	C561.697815,79.783134 554.103516,88.728889 546.655762,97.719284 
	C538.987000,106.976410 531.282715,116.199280 527.423645,127.864830 
	C526.230347,131.472046 524.483093,135.258438 528.006897,138.575500 
	C531.464478,141.830261 535.662537,141.817398 539.721924,140.256302 
	C545.931824,137.868195 551.933105,134.941757 558.119507,132.487396 
	C565.494812,129.561356 573.084717,127.972305 579.921326,133.531113 
	C587.286926,139.520020 587.088135,147.969040 585.433899,156.104782 
	C583.981323,163.248901 580.963623,170.061249 579.180664,177.156708 
	C578.065674,181.594238 577.588013,186.282974 577.565796,190.862579 
	C577.555908,192.907288 579.046875,195.217911 580.428894,196.951767 
	C582.656921,199.747116 583.770447,202.502335 581.345215,205.492096 
	C578.926331,208.473984 575.278625,209.117264 572.347839,207.140350 
	C569.772400,205.403152 567.446289,202.549393 566.239563,199.672943 
	C562.886841,191.681580 563.333679,183.380798 565.901062,175.194992 
	C567.346863,170.585037 569.020630,166.046280 570.450439,161.431671 
	C571.385498,158.413956 572.338867,155.358963 572.810059,152.248856 
	C574.075439,143.896652 571.289001,141.543091 563.464294,144.474594 
	C558.794312,146.224197 554.353638,148.578247 549.775330,150.581650 
	C543.609070,153.279861 537.328064,155.333221 530.419067,154.028168 
	C517.416443,151.572067 510.298309,140.424011 513.701721,127.649345 
	C517.173645,114.617470 524.535217,103.793404 533.026672,93.583130 
	C537.390747,88.335732 541.799561,83.080376 545.624695,77.446098 
	C548.106812,73.790031 550.153564,69.610130 551.368286,65.370659 
	C553.704102,57.217995 547.782776,50.558113 539.515381,52.590202 
	C532.504639,54.313396 525.549927,57.141556 519.256714,60.695847 
	C510.432648,65.679504 502.267548,71.824265 493.779602,77.410072 
	C480.118622,86.400192 466.090485,94.297401 447.492493,91.176804 
	C451.819275,96.477219 455.312347,100.796432 458.848206,105.080345 
	C469.346924,117.800262 474.840179,132.594727 477.018463,148.772263 
	C477.240753,150.423065 477.712555,152.071960 477.692688,153.717194 
	C477.649292,157.318573 479.540710,159.141937 482.755402,160.175873 
	C484.969055,160.887833 487.114258,161.841675 489.233673,162.810760 
	C492.522552,164.314621 494.221619,166.869415 493.081726,170.457016 
	C491.956909,173.997299 488.986847,174.508530 485.749268,173.935379 
	C484.149475,173.652176 482.586060,173.163620 480.546753,172.652924 
	C480.056274,180.262924 480.242401,187.618317 478.971344,194.712631 
	C477.029022,205.553833 477.270386,215.227325 486.892944,222.712250 
	C488.876160,224.254898 489.915405,227.011078 491.620453,229.551758 
	C502.730377,223.529037 511.867889,215.586044 517.588318,204.573456 
	C521.151306,197.714203 523.399048,190.104004 525.632019,182.649597 
	C526.787964,178.790863 527.598877,175.437622 532.519836,175.944809 
	C536.303406,176.334778 538.055664,179.476486 537.261597,184.853912 
	C533.833374,208.070862 521.384888,225.512253 502.180817,238.295853 
	C498.161194,240.971588 496.828583,243.215607 497.738800,248.238724 
	C502.937561,276.928894 490.277191,301.581360 461.890686,315.661987 
	C446.581268,323.255981 430.211853,328.758453 414.168427,334.800385 
	C409.184814,336.677155 404.876556,338.594055 400.758789,342.459839 
	C391.679871,350.983063 381.604919,358.470520 371.724060,366.105896 
	C364.572968,371.631775 357.080444,376.715820 349.326904,382.294250 
	C351.967438,382.950714 354.370331,383.373901 356.655487,384.145691 
	C367.955872,387.962158 372.457977,398.310638 366.955231,408.890869 
	C364.313293,413.970551 360.536652,418.460083 357.100769,423.469360 
	C385.641998,427.151184 396.521576,447.647705 402.368073,473.078491 
	C411.349304,469.222870 418.189911,463.501801 424.276733,456.868683 
	C435.396790,444.750549 440.503540,430.320679 440.179077,413.920074 
	C440.139496,411.920929 440.029388,409.913971 440.151337,407.922821 
	C440.379944,404.190613 441.970276,401.343842 446.087830,401.225861 
	C450.106384,401.110779 451.585632,403.998444 451.870361,407.433441 
	C453.268250,424.298309 450.764526,440.386292 441.584991,454.936005 
	C432.929596,468.654938 421.372437,479.260193 406.469635,485.842224 
	C402.726074,487.495667 402.433624,490.270905 402.145111,493.440125 
	C400.486603,511.657715 393.499054,527.761780 379.478760,539.325684 
	C367.485199,549.217957 353.941162,557.318604 340.653107,565.514893 
	C334.245239,569.467468 329.630829,567.138611 328.240784,560.162109 
	C329.625244,558.043457 330.829834,556.549072 332.382141,554.972900 
	C344.594269,547.306335 356.949982,540.376953 368.186096,531.954041 
	C379.600494,523.397461 386.041382,511.199890 388.568176,496.991180 
	C389.336853,492.668732 387.959259,491.635681 383.950500,492.134827 
	C380.171692,492.605316 376.313904,492.993774 372.531860,492.758667 
	C366.641113,492.392487 360.785095,491.468384 354.711670,490.756958 
	C358.880280,515.990784 353.479828,537.519043 331.720154,553.252197 
	C329.262115,554.570435 327.126923,555.786438 324.991730,557.002441 
	C316.819977,560.250488 308.879303,563.683411 299.736420,564.218262 
	C268.899719,566.022095 245.288895,542.143188 241.094604,516.257080 
	C238.172485,498.222351 242.628357,471.019012 267.296295,456.432953 
	C274.001343,452.468292 273.829895,452.178375 274.360168,447.321594 
	C267.977051,445.069733 261.621155,442.733795 255.184555,440.646912 
	C254.086639,440.290955 252.615387,440.898895 251.365143,441.239594 
	C248.796753,441.939423 246.303070,442.968079 243.704071,443.490509 
	C236.536942,444.931244 231.253326,440.502411 232.914337,433.459412 
	C234.423843,427.058838 232.454300,422.567078 229.170776,417.403564 
	C216.989304,398.247528 216.134109,377.953949 224.915802,357.265686 
	C228.244843,349.423035 231.008759,341.834747 231.238953,332.966888 
	C231.539948,321.372040 239.036621,312.800781 248.838165,307.920502 
	C258.345825,303.186523 264.341797,295.813080 270.069916,287.643890 
	C271.981842,284.917236 273.711090,281.902985 276.160797,279.742401 
	C283.965912,272.858459 280.418701,265.057343 279.289673,258.017212 
	C272.321045,263.801056 265.474640,269.453796 258.675903,275.163330 
	C257.811218,275.889465 257.030975,276.822418 256.489868,277.811768 
	C247.391708,294.446899 219.766342,310.788391 195.693695,300.478607 
	C187.914566,297.147003 182.324692,292.056427 178.843597,284.353027 
	C177.890427,282.243744 176.248856,279.684357 174.296127,278.907288 
	C157.168930,272.091705 146.769913,258.376434 137.381302,243.597412 
	C131.335327,234.080185 127.159195,223.738617 125.168549,212.635117 
	C124.527359,209.058655 123.026108,208.763000 120.043427,209.682739 
	C108.673157,213.188873 97.078079,215.325516 85.111549,214.863998 
	C63.568382,214.033142 50.683720,200.950363 50.945499,179.473022 
	C51.032005,172.375580 52.149090,165.214050 53.541687,158.230713 
	C54.938534,151.226044 57.455246,144.452988 59.147987,137.497345 
	C62.764713,122.635818 54.090527,113.441940 38.840443,115.825890 
	C31.764912,116.931969 25.426109,119.542641 20.308603,124.815887 
	C18.001492,127.193222 15.094599,128.018661 12.258446,125.660164 
	C9.263295,123.169434 9.639737,120.104095 11.523389,117.127525 
	C22.726164,99.424721 56.468166,98.240692 68.498734,115.144821 
	C73.710625,122.468018 74.154076,130.738373 72.280327,139.098373 
	C69.987717,149.327194 66.889885,159.377670 64.677170,169.621231 
	C63.743481,173.943710 63.768101,178.591187 64.078468,183.040619 
	C64.796608,193.336151 70.716331,199.459396 80.916542,201.087296 
	C94.518753,203.258148 107.410950,199.919312 120.095390,195.655487 
	C121.442924,195.202515 122.696068,192.439865 122.803444,190.676300 
	C123.278580,182.872177 122.987091,175.016006 123.587593,167.226044 
	C124.746735,152.188980 130.619675,138.527252 136.633118,124.931915 
	C139.358109,118.771141 137.391083,116.557861 130.858780,116.693672 
	C123.070145,116.855598 115.111694,117.011246 107.494942,115.659149 
	C88.996513,112.375404 76.199471,98.074333 73.098373,78.150436 
	C72.509964,74.370018 71.169724,72.472900 67.263222,71.394890 
	C43.539848,64.848312 31.124620,45.654572 34.790909,21.295830 
	C35.779102,14.730282 37.560963,8.284189 38.989254,1.391631 
	C43.024544,1.000000 47.049088,1.000000 51.537102,1.391904 
	C50.454208,8.422330 48.490475,14.995789 47.443485,21.712156 
	C44.805946,38.631775 52.927937,52.832642 67.348625,57.828705 
	C71.336380,59.210258 72.997940,58.710777 74.414162,54.264156 
	C80.676033,34.603203 94.035843,21.568844 113.723663,15.744110 
	C126.177536,12.059577 136.954803,19.413614 137.733582,31.207043 
	C138.208344,38.396221 135.246872,44.534401 130.640106,49.881187 
	C120.100281,62.114082 106.619331,69.242653 90.874664,72.043991 
	C86.441536,72.832748 84.843636,74.851372 86.565247,78.757462 
	C88.884499,84.019485 90.977531,89.657898 94.516747,94.046883 
	C101.492393,102.697403 111.688507,104.100266 122.154572,104.031029 
	C131.514832,103.969109 131.255524,103.981209 131.920624,94.706123 
	C132.878754,81.344254 138.299164,70.230690 150.078766,63.102802 
	C161.245224,56.345921 172.923111,60.403263 177.961746,72.408684 
	C178.379807,73.404816 178.984207,74.322746 178.904831,74.176445 
	C198.540115,64.111191 217.826004,54.225037 236.740494,44.529270 
	C236.292450,44.353539 234.831497,43.636654 233.291046,43.200626 
	C225.601974,41.024223 217.895203,38.910030 210.188568,36.796227 
	C202.544403,34.699566 199.624084,31.971460 199.940445,27.167231 
	C200.223251,22.872654 203.533875,20.467131 211.139572,19.150562 
	C219.669647,17.673975 228.216232,16.292252 236.743118,14.797859 
	C240.075165,14.213895 243.373169,13.435719 247.747726,12.525141 
	C243.951385,8.036563 240.975693,4.518282 238.000000,1.000001 
	C243.022095,1.000000 248.044189,1.000000 253.729568,1.268497 
	C255.162872,2.410983 255.939255,3.279463 256.701935,4.159810 
	C265.165466,13.929122 262.913330,21.267727 250.338852,24.866224 
	C249.059967,25.232206 247.765350,25.555151 246.462784,25.824245 
	C242.337814,26.676405 238.205627,27.493540 234.076233,28.324223 
	C236.615921,30.351784 239.289062,31.088228 241.820541,32.159458 
	C245.944077,33.904388 249.900787,36.061306 254.073654,37.665039 
	C256.480682,38.590115 259.255737,39.464470 261.724854,39.173096 
	C277.060486,37.363373 292.304199,34.546337 307.678528,33.350441 
	C327.310272,31.823372 346.442322,35.828693 365.198395,41.388069 
	C369.178314,42.567726 371.627014,41.397709 372.393982,37.758923 
	C373.140442,34.217285 372.932404,30.474468 373.120819,27.212048 
	C366.012115,27.865051 359.910400,29.133820 353.884033,28.842714 
	C337.580017,28.055141 326.414856,15.220391 329.000000,1.000000 
	C333.689240,1.000000 338.378510,1.000000 343.337097,1.313283 
	C340.740784,4.947229 341.561890,8.058858 344.238922,10.965297 
	C349.515594,16.694221 360.364807,17.950417 368.297943,12.955255 
	C364.631042,9.927597 361.269531,7.165921 357.925049,4.383751 
	C356.597260,3.279214 355.307220,2.129269 354.000000,0.999997 
	C360.687653,1.000000 367.375275,1.000000 374.673096,1.301401 
	C376.439423,3.066917 377.595581,4.531033 379.369598,6.777561 
	C380.889771,4.358332 381.944885,2.679168 383.000000,1.000001 
	C387.689240,1.000000 392.378510,1.000000 397.345703,1.285625 
	C394.168427,6.440391 390.556152,11.209115 387.344208,16.233761 
	C386.237427,17.965172 385.761322,20.311794 385.631500,22.416504 
	C385.217255,29.132454 385.205963,35.873196 384.795807,42.589500 
	C384.693390,44.267101 383.676666,45.888866 383.333252,46.837296 
	C398.758514,55.050949 413.619263,62.964016 428.286407,70.773987 
	C429.323883,65.962936 429.953064,60.838764 431.557465,56.040680 
	C435.533173,44.150906 442.786560,34.185291 451.288757,25.163204 
	C459.026489,16.952354 467.083649,9.042532 475.000000,1.000009 
	C481.021149,1.000000 487.042297,1.000000 493.531738,1.000001 
M247.038132,181.224442 
	C243.778549,180.671860 240.518967,180.119263 236.210968,179.388931 
	C237.301254,175.402634 237.662811,171.320160 239.442093,167.996704 
	C260.268097,129.096664 298.860107,114.244720 337.640839,127.369423 
	C353.273163,132.659912 362.314484,143.919266 364.150574,160.445114 
	C366.128754,178.249939 361.914368,194.987091 351.428680,209.144516 
	C339.271027,225.559402 325.469147,240.758987 312.334534,256.447205 
	C294.170044,278.143219 275.321350,299.306000 257.994934,321.650360 
	C246.156326,336.917542 236.955841,354.097168 233.407318,373.563202 
	C226.749359,410.086578 253.755890,439.923950 289.570618,435.832855 
	C305.698761,433.990540 320.837097,429.012299 334.679749,420.707947 
	C341.161102,416.819702 346.957977,411.665161 352.618347,406.586670 
	C355.435455,404.059174 356.483093,400.173248 354.047913,396.562134 
	C351.517303,392.809540 347.882782,393.310181 344.197235,394.657928 
	C342.322479,395.343506 340.435852,396.014252 338.516479,396.556976 
	C330.958893,398.694092 323.544281,398.593323 315.614838,395.009308 
	C317.685852,392.271362 319.106415,389.507355 321.301727,387.668213 
	C326.510986,383.304291 331.810883,378.933014 337.567566,375.359619 
	C354.838806,364.638702 371.844940,353.664856 387.481720,340.526245 
	C412.529480,319.480133 433.618561,295.640533 447.689423,265.651825 
	C462.282867,234.549301 472.334900,202.720047 469.157196,167.887375 
	C467.622314,151.062454 464.696564,134.604630 456.013336,119.633041 
	C441.604828,94.789955 419.873962,78.064674 395.139038,64.929649 
	C356.281036,44.294872 314.517731,42.160278 271.996796,47.615562 
	C243.386551,51.286156 217.493973,62.889507 193.921875,79.065956 
	C150.085358,109.148972 128.365433,150.177078 135.058945,204.154572 
	C137.321152,222.397263 143.786514,239.183823 157.051605,252.385498 
	C180.370468,275.592926 208.650970,281.363464 239.565201,272.699799 
	C267.638092,264.832367 280.312134,245.194901 277.183014,217.210342 
	C275.155579,199.078629 265.785919,186.664139 247.038132,181.224442 
M298.528442,192.782410 
	C296.351318,182.208588 294.169281,171.635773 291.998932,161.060547 
	C290.781219,155.126938 289.582855,149.189362 288.375732,143.253571 
	C287.802490,143.056015 287.229218,142.858459 286.655945,142.660904 
	C276.488312,152.278503 266.320679,161.896118 255.862656,171.788406 
	C257.192688,172.779099 257.795837,173.314499 258.475586,173.722260 
	C281.044769,187.260345 290.862396,207.447571 287.208527,233.160339 
	C285.793304,243.119232 291.667572,249.974945 292.779510,260.075195 
	C298.909180,253.427261 304.136230,248.106354 308.967194,242.447372 
	C319.445007,230.173676 329.671051,217.685486 340.093567,205.364120 
	C348.733582,195.149979 352.786957,183.309158 353.027222,170.056656 
	C353.063263,168.069290 352.863678,166.077637 352.723907,163.007507 
	C345.649292,170.086304 339.718170,176.393127 333.376526,182.255936 
	C327.649353,187.550659 321.809692,192.849640 315.402893,197.248535 
	C308.698547,201.851730 303.706818,200.281357 298.528442,192.782410 
M333.605377,538.090393 
	C334.369415,537.210571 335.178284,536.365479 335.890869,535.445801 
	C349.877045,517.394592 349.691162,492.742310 335.450226,475.412598 
	C321.072510,457.916473 296.806641,452.789612 276.728516,463.005920 
	C256.672607,473.210907 246.248276,496.101929 252.081955,517.754456 
	C261.993347,554.541931 307.462311,565.590881 333.605377,538.090393 
M371.268585,442.130890 
	C370.137878,441.433258 369.043488,440.666687 367.870758,440.048828 
	C358.005615,434.851074 348.815704,436.525360 342.983856,444.553009 
	C336.993683,452.798584 337.825195,463.533020 345.992218,470.610535 
	C357.816864,480.857697 372.043243,481.001831 386.506622,478.422943 
	C387.479431,478.249512 388.859283,475.606171 388.657135,474.332611 
	C386.679443,461.871460 382.188141,450.638000 371.268585,442.130890 
M447.765381,287.218353 
	C442.170868,295.797882 436.576355,304.377411 430.727844,313.346405 
	C432.203766,313.574951 432.738647,313.830627 433.142975,313.695526 
	C448.554321,308.544952 463.496765,302.403381 474.541077,289.850616 
	C484.092407,278.994781 487.581390,266.193390 485.162567,251.822037 
	C484.620758,248.602921 483.267578,247.638641 480.061218,248.435608 
	C476.694702,249.272339 473.217590,249.919876 469.763336,250.072159 
	C466.638367,250.209930 465.041504,251.541321 463.757538,254.264709 
	C458.654724,265.087860 453.353607,275.817474 447.765381,287.218353 
M305.088837,160.386276 
	C306.471527,168.486237 307.854218,176.586212 309.236908,184.686172 
	C309.909943,184.968414 310.582977,185.250656 311.256012,185.532898 
	C323.488556,173.510498 335.721069,161.488098 347.900848,149.517532 
	C338.048523,137.954056 310.664642,130.167099 299.989014,135.071075 
	C301.667450,143.262878 303.332825,151.390915 305.088837,160.386276 
M93.435394,44.981133 
	C91.124542,49.247822 88.813698,53.514511 86.265762,58.218956 
	C88.159050,58.665199 88.830803,59.044823 89.395882,58.924301 
	C102.987617,56.025398 114.963623,50.318851 122.683876,38.198620 
	C124.041367,36.067459 124.634048,31.225647 123.414101,30.192101 
	C121.537041,28.601839 117.472488,28.251873 114.886971,29.085165 
	C106.317635,31.846987 99.308434,37.147961 93.435394,44.981133 
M158.364517,73.677559 
	C149.260132,78.136139 143.688522,88.981712 145.445251,98.825958 
	C152.567642,98.243790 163.401794,90.018806 165.518646,83.586815 
	C167.467361,77.665672 164.729645,73.345963 158.364517,73.677559 
M313.680969,442.200867 
	C308.312012,443.479584 302.943054,444.758331 297.574097,446.037048 
	C297.514252,446.467102 297.454407,446.897156 297.394562,447.327179 
	C307.838470,444.870758 316.591644,449.027283 325.342163,454.101166 
	C327.385345,448.184265 329.214478,442.887207 331.196167,437.148376 
	C325.218719,438.835541 319.822479,440.358643 313.680969,442.200867 
M196.457870,284.423920 
	C196.140137,284.470215 195.755753,284.426666 195.528641,284.595123 
	C195.382828,284.703308 195.345657,285.289612 195.468124,285.380341 
	C201.630508,289.944794 208.718262,291.285675 216.105103,290.506836 
	C219.669327,290.131042 223.103531,288.521912 226.596619,287.471283 
	C226.466339,287.210754 226.336044,286.950256 226.205765,286.689728 
	C216.505341,285.979431 206.804901,285.269135 196.457870,284.423920 
M470.716797,234.922195 
	C472.671936,237.473831 473.925110,237.425980 479.101349,234.295227 
	C477.516968,232.083359 475.961700,229.912064 473.997986,227.170593 
	C472.744202,230.099823 471.853455,232.180923 470.716797,234.922195 
z"/>
<path fill="#5893C1" opacity="1.000000" stroke="none" 
	d="
M237.531342,1.000001 
	C240.975693,4.518282 243.951385,8.036563 247.747726,12.525141 
	C243.373169,13.435719 240.075165,14.213895 236.743118,14.797859 
	C228.216232,16.292252 219.669647,17.673975 211.139572,19.150562 
	C203.533875,20.467131 200.223251,22.872654 199.940445,27.167231 
	C199.624084,31.971460 202.544403,34.699566 210.188568,36.796227 
	C217.895203,38.910030 225.601974,41.024223 233.291046,43.200626 
	C234.831497,43.636654 236.292450,44.353539 236.740494,44.529270 
	C217.826004,54.225037 198.540115,64.111191 178.904831,74.176445 
	C178.984207,74.322746 178.379807,73.404816 177.961746,72.408684 
	C172.923111,60.403263 161.245224,56.345921 150.078766,63.102802 
	C138.299164,70.230690 132.878754,81.344254 131.920624,94.706123 
	C131.255524,103.981209 131.514832,103.969109 122.154572,104.031029 
	C111.688507,104.100266 101.492393,102.697403 94.516747,94.046883 
	C90.977531,89.657898 88.884499,84.019485 86.565247,78.757462 
	C84.843636,74.851372 86.441536,72.832748 90.874664,72.043991 
	C106.619331,69.242653 120.100281,62.114082 130.640106,49.881187 
	C135.246872,44.534401 138.208344,38.396221 137.733582,31.207043 
	C136.954803,19.413614 126.177536,12.059577 113.723663,15.744110 
	C94.035843,21.568844 80.676033,34.603203 74.414162,54.264156 
	C72.997940,58.710777 71.336380,59.210258 67.348625,57.828705 
	C52.927937,52.832642 44.805946,38.631775 47.443485,21.712156 
	C48.490475,14.995789 50.454208,8.422330 52.000286,1.391904 
	C87.020897,1.000000 122.041786,1.000000 157.587982,1.372056 
	C159.611877,6.485292 161.097794,11.230530 162.612915,15.966423 
	C163.924576,20.066353 164.748505,24.448298 166.815857,28.128164 
	C167.874466,30.012486 171.366486,31.791367 173.419800,31.467716 
	C175.153809,31.194395 177.010727,28.000193 177.669159,25.762175 
	C178.206116,23.937065 177.211639,21.567791 176.617050,19.520882 
	C174.817566,13.326090 172.882339,7.170728 171.000000,1.000000 
	C193.020889,1.000000 215.041794,1.000000 237.531342,1.000001 
z"/>
<path fill="#2A577C" opacity="1.000000" stroke="none" 
	d="
M71.468658,601.000000 
	C64.929741,599.312134 58.877541,597.555725 52.785614,595.950073 
	C38.787613,592.260681 25.972797,586.336304 16.925600,574.635742 
	C1.147960,554.230652 3.187847,527.463013 21.559109,508.106171 
	C28.662115,500.622101 36.888458,494.704651 46.716026,491.412506 
	C63.633713,485.745178 80.594292,492.635162 90.736145,509.966522 
	C95.841011,518.690186 99.751938,528.138000 103.871124,537.405762 
	C107.826149,546.304199 111.906517,554.917419 120.231781,560.811218 
	C133.980713,570.544800 150.242065,570.778931 161.896851,561.102905 
	C167.366165,556.562134 169.415665,550.871216 168.341507,543.783875 
	C166.698578,532.944031 161.275986,523.770752 156.017807,514.495911 
	C151.461609,506.459229 147.639221,498.259094 147.796814,488.654663 
	C147.927689,480.680267 150.716919,474.146393 156.560379,468.720917 
	C173.708542,452.799286 205.624619,452.915161 221.532837,469.047729 
	C233.368210,481.050079 235.098892,500.754456 225.517593,514.591492 
	C224.951599,515.408936 224.334610,516.217896 223.615631,516.897888 
	C220.957962,519.411438 217.940887,520.808838 214.756866,518.066772 
	C211.783264,515.505981 212.808640,512.558899 214.398224,509.487793 
	C216.202820,506.001312 218.459732,502.395203 218.939041,498.639343 
	C220.759430,484.374695 213.554306,474.481781 199.562027,471.058472 
	C189.206192,468.524872 179.346329,470.103241 170.047211,475.067322 
	C161.914490,479.408752 158.973465,485.320984 161.661682,494.187988 
	C163.568100,500.476227 167.076599,506.274475 169.817856,512.315063 
	C173.112762,519.575745 177.097321,526.627075 179.474869,534.180847 
	C186.334152,555.973633 176.071564,573.815063 153.874603,579.833252 
	C131.812683,585.814941 107.050133,573.950439 96.069038,551.787659 
	C92.304268,544.189392 89.608513,536.064087 85.899712,528.434570 
	C83.148575,522.775146 79.981003,517.206238 76.227463,512.172180 
	C70.620934,504.653015 62.856876,501.335541 53.378021,503.170013 
	C38.584549,506.033020 21.998009,523.844543 19.963779,538.928467 
	C17.803085,554.950256 24.531384,569.655823 39.563065,576.483887 
	C50.959114,581.660400 63.471054,584.443115 75.585266,587.949585 
	C81.810463,589.751526 88.288811,590.660217 94.582504,592.250671 
	C98.758530,593.306030 102.455704,595.224915 103.013390,600.626953 
	C92.645775,601.000000 82.291542,601.000000 71.468658,601.000000 
z"/>
<path fill="#2A577C" opacity="1.000000" stroke="none" 
	d="
M1.000000,362.464661 
	C13.816772,361.279266 26.295128,362.630585 38.039490,368.226807 
	C50.931919,374.370117 61.614235,383.065338 69.651863,395.032440 
	C71.145439,397.256226 73.911140,399.244141 76.488197,400.023712 
	C96.942207,406.211273 113.946968,416.815338 123.261581,436.846741 
	C128.698883,448.539856 129.667679,460.962677 125.622162,473.362793 
	C124.775421,475.958099 122.562798,478.575531 120.256081,480.053528 
	C118.844933,480.957642 115.389954,480.433380 114.071884,479.223053 
	C112.768387,478.026123 112.007149,474.740265 112.706741,473.091431 
	C119.942284,456.038208 114.596817,441.873566 102.835434,429.327728 
	C96.022751,422.060608 87.454216,417.404541 77.097527,414.380676 
	C77.097527,416.785034 77.110161,418.548218 77.095604,420.311218 
	C76.928963,440.498383 55.602306,458.630310 35.535679,455.534729 
	C24.796204,453.878021 16.745949,448.511505 13.800701,437.599640 
	C10.834847,426.611481 14.280195,417.183228 22.435606,409.520691 
	C29.884609,402.521820 39.097359,399.346191 49.064678,398.060272 
	C50.219570,397.911285 51.382786,397.821045 52.532558,397.642029 
	C52.827702,397.596039 53.086319,397.315491 53.359718,397.139526 
	C49.965015,384.771851 19.835821,372.285767 1.400731,375.885254 
	C1.000000,371.643097 1.000000,367.286194 1.000000,362.464661 
M25.962341,431.370209 
	C26.982325,437.827606 29.680729,440.905975 35.825161,442.222534 
	C43.467773,443.860168 49.904400,440.829498 55.679798,436.345520 
	C62.750706,430.855713 65.550026,423.496704 63.315563,414.726349 
	C62.923843,413.188782 60.491653,410.910217 59.249935,411.058014 
	C52.076096,411.911987 44.693039,412.566040 37.931385,414.889771 
	C31.080540,417.244232 26.301949,422.532227 25.962341,431.370209 
z"/>
<path fill="#2A577C" opacity="1.000000" stroke="none" 
	d="
M1.000003,274.468628 
	C4.459678,269.148346 7.802858,264.207855 11.414379,259.472015 
	C14.534655,255.380325 17.575676,251.102219 21.336565,247.653305 
	C27.674068,241.841522 34.958832,242.829956 39.559910,250.079071 
	C42.571793,254.824310 45.086960,259.986359 47.108391,265.237457 
	C51.235298,275.958038 54.871857,286.867157 58.729294,297.691895 
	C59.264099,299.192657 59.906258,300.655151 60.992443,303.368896 
	C63.805138,298.334290 66.114105,294.375793 68.256844,290.329285 
	C72.620537,282.088654 76.880951,273.793396 81.220863,265.540039 
	C81.837677,264.367035 82.575935,263.234619 83.402679,262.198944 
	C89.423622,254.656555 97.464745,254.898499 101.919289,263.429901 
	C107.456009,274.033875 112.257530,285.032837 117.106941,295.980682 
	C120.397156,303.408508 123.223557,311.041840 126.257378,318.583282 
	C126.841034,318.950104 127.424690,319.316925 128.008347,319.683777 
	C128.553207,318.505951 129.005066,317.273682 129.657684,316.158936 
	C134.620041,307.682770 139.784851,299.319733 144.532394,290.725800 
	C146.484665,287.191803 148.672302,284.919434 152.772751,286.447662 
	C156.970383,288.012054 157.684998,291.497589 156.858383,295.501251 
	C156.758392,295.985504 156.627060,296.499573 156.367386,296.909302 
	C148.710968,308.988861 141.495926,321.384674 133.203156,333.011597 
	C127.685654,340.747406 121.198151,339.570831 117.391846,330.748199 
	C111.059845,316.071136 105.192215,301.194427 99.008080,286.452545 
	C97.172752,282.077423 94.931976,277.872375 92.383972,272.561890 
	C90.310013,276.184784 88.804710,278.709473 87.398872,281.288330 
	C81.423569,292.249481 75.493881,303.235504 69.501694,314.187378 
	C68.706169,315.641327 67.745743,317.031860 66.693779,318.314056 
	C61.966702,324.075592 54.934151,323.440460 51.888523,316.670013 
	C49.299282,310.914185 47.353443,304.864319 45.213047,298.912140 
	C41.437386,288.412567 37.797668,277.863556 33.952953,267.389618 
	C32.821651,264.307648 31.191181,261.408936 29.243023,257.263428 
	C26.360697,260.740723 23.835817,263.285004 21.898504,266.217499 
	C15.935928,275.242920 10.209870,284.424377 4.358908,293.523956 
	C3.571102,294.749176 2.594020,295.852722 1.352286,297.006287 
	C1.000000,289.645752 1.000000,282.291504 1.000003,274.468628 
z"/>
<path fill="#2A567C" opacity="1.000000" stroke="none" 
	d="
M601.000000,413.535339 
	C596.982056,413.488251 592.434937,411.527496 589.054688,412.761993 
	C581.681091,415.454834 574.300232,418.960602 568.013184,423.609406 
	C557.330933,431.508118 547.703430,440.815826 537.249939,449.045197 
	C518.125793,464.100403 495.970276,453.903412 488.318817,436.035004 
	C484.645081,427.455750 483.301361,417.861267 481.087158,408.681976 
	C479.996643,404.161011 479.648560,399.449371 478.409088,394.977966 
	C473.264801,376.419800 457.182556,366.965576 438.405548,371.468048 
	C426.440369,374.337128 416.159821,380.270569 407.906921,389.484222 
	C406.718628,390.810852 405.702637,392.411224 405.030548,394.057800 
	C403.176178,398.600952 400.516113,400.199066 396.798370,398.689484 
	C393.381622,397.302155 391.678680,393.273621 393.577942,389.433167 
	C395.177979,386.197754 397.282349,383.041168 399.786163,380.451813 
	C412.859619,366.931671 428.273132,358.043030 447.632446,357.838470 
	C468.689575,357.615936 485.272308,370.004333 490.708771,390.365601 
	C492.717590,397.889343 493.394104,405.759155 494.996338,413.404480 
	C496.084808,418.598145 497.280426,423.850403 499.205627,428.772369 
	C504.856537,443.219574 518.318726,447.222107 530.518311,437.803467 
	C540.122742,430.388336 548.998352,422.037109 558.397827,414.346313 
	C568.858948,405.786957 580.119324,398.809235 594.331116,398.914154 
	C596.302246,398.928680 598.270020,399.402771 600.619629,399.832092 
	C601.000000,404.356903 601.000000,408.713806 601.000000,413.535339 
z"/>
<path fill="#5893C1" opacity="1.000000" stroke="none" 
	d="
M474.531372,1.000009 
	C467.083649,9.042532 459.026489,16.952354 451.288757,25.163204 
	C442.786560,34.185291 435.533173,44.150906 431.557465,56.040680 
	C429.953064,60.838764 429.323883,65.962936 428.286407,70.773987 
	C413.619263,62.964016 398.758514,55.050949 383.333252,46.837296 
	C383.676666,45.888866 384.693390,44.267101 384.795807,42.589500 
	C385.205963,35.873196 385.217255,29.132454 385.631500,22.416504 
	C385.761322,20.311794 386.237427,17.965172 387.344208,16.233761 
	C390.556152,11.209115 394.168427,6.440391 397.811829,1.285625 
	C423.354218,1.000000 448.708466,1.000000 474.531372,1.000009 
z"/>
<path fill="#5793C1" opacity="1.000000" stroke="none" 
	d="
M328.531342,1.000000 
	C326.414856,15.220391 337.580017,28.055141 353.884033,28.842714 
	C359.910400,29.133820 366.012115,27.865051 373.120819,27.212048 
	C372.932404,30.474468 373.140442,34.217285 372.393982,37.758923 
	C371.627014,41.397709 369.178314,42.567726 365.198395,41.388069 
	C346.442322,35.828693 327.310272,31.823372 307.678528,33.350441 
	C292.304199,34.546337 277.060486,37.363373 261.724854,39.173096 
	C259.255737,39.464470 256.480682,38.590115 254.073654,37.665039 
	C249.900787,36.061306 245.944077,33.904388 241.820541,32.159458 
	C239.289062,31.088228 236.615921,30.351784 234.076233,28.324223 
	C238.205627,27.493540 242.337814,26.676405 246.462784,25.824245 
	C247.765350,25.555151 249.059967,25.232206 250.338852,24.866224 
	C262.913330,21.267727 265.165466,13.929122 256.701935,4.159810 
	C255.939255,3.279463 255.162872,2.410983 254.196426,1.268497 
	C278.687561,1.000000 303.375122,1.000000 328.531342,1.000000 
z"/>
<path fill="#2A577C" opacity="1.000000" stroke="none" 
	d="
M601.000000,324.536804 
	C589.626160,326.604767 578.255615,328.234222 566.874634,329.786682 
	C565.235962,330.010223 563.541382,329.961731 561.881836,329.871063 
	C553.036072,329.387787 549.232056,322.693451 554.215027,315.380981 
	C561.053772,305.345093 568.561157,295.764954 575.773438,285.983185 
	C576.721008,284.698029 577.617798,283.375427 579.450500,280.776001 
	C572.006592,281.821289 565.986511,282.477478 560.041138,283.548248 
	C552.176086,284.964752 544.382751,286.775452 536.531616,288.275482 
	C533.033813,288.943787 529.724121,288.460175 528.180359,284.647614 
	C526.775574,281.178253 528.501953,277.899139 532.455017,277.108643 
	C548.123291,273.975555 563.826050,271.012421 579.533203,268.078308 
	C581.475586,267.715485 583.522766,267.817078 585.518677,267.853607 
	C594.739319,268.022308 598.784058,274.882019 593.748352,282.873840 
	C589.057495,290.318420 583.377991,297.140656 578.123535,304.229309 
	C575.490295,307.781860 572.834473,311.317749 570.188904,314.861176 
	C570.409180,315.286407 570.629456,315.711609 570.849792,316.136841 
	C580.620056,314.777588 590.390381,313.418304 600.580322,312.029541 
	C601.000000,316.024536 601.000000,320.049103 601.000000,324.536804 
z"/>
<path fill="#2A577C" opacity="1.000000" stroke="none" 
	d="
M504.463196,601.000000 
	C508.729187,584.645813 520.286499,575.207581 536.144775,571.485046 
	C551.138611,567.965454 562.781982,574.785278 571.569702,586.646423 
	C574.716431,590.893738 576.980286,595.795105 579.823486,600.698975 
	C575.310730,601.000000 570.621521,601.000000 565.353882,600.673218 
	C564.055176,599.039917 563.442932,597.658264 562.596680,596.439026 
	C557.379089,588.921509 551.013916,582.383850 541.156616,583.526184 
	C530.244202,584.790771 521.635559,590.453857 517.000000,601.000000 
	C512.975464,601.000000 508.950897,601.000000 504.463196,601.000000 
z"/>
<path fill="#2A577C" opacity="1.000000" stroke="none" 
	d="
M208.463181,601.000000 
	C211.525742,589.567505 214.831238,578.061157 218.636581,566.722534 
	C222.787491,554.354187 228.870132,551.797668 240.731232,557.333008 
	C248.255905,560.844666 255.587082,564.789978 262.885529,568.760498 
	C267.537231,571.291199 269.061981,574.799683 267.141174,577.969910 
	C264.623352,582.125549 260.636230,581.937073 257.026398,580.210449 
	C250.285950,576.986328 243.716476,573.375732 237.235825,569.647888 
	C233.158539,567.302551 230.997314,568.064209 229.649261,572.630188 
	C226.921326,581.869995 223.911469,591.026611 221.008942,600.608765 
	C216.975449,601.000000 212.950912,601.000000 208.463181,601.000000 
z"/>
<path fill="#2A567C" opacity="1.000000" stroke="none" 
	d="
M601.000000,379.536804 
	C595.132446,381.126587 589.299500,382.768433 583.382935,383.166809 
	C580.329407,383.372406 576.006226,382.243530 574.330566,380.097961 
	C572.870544,378.228577 573.260193,373.471405 574.661560,371.047760 
	C582.974182,356.670959 591.819397,342.602020 600.742798,328.214813 
	C601.000000,336.020905 601.000000,344.041809 600.713013,352.709167 
	C597.639282,357.906738 594.852661,362.457916 591.559570,367.836182 
	C595.535767,367.484009 598.267883,367.242004 601.000000,367.000000 
	C601.000000,371.024536 601.000000,375.049103 601.000000,379.536804 
z"/>
<path fill="#2A577C" opacity="1.000000" stroke="none" 
	d="
M296.467590,601.000000 
	C302.626312,588.057922 321.936188,580.708862 336.466217,586.945740 
	C343.312195,589.884155 348.899292,595.755310 355.028412,600.648804 
	C349.311951,601.000000 343.623932,601.000000 337.211792,600.760498 
	C327.931152,595.402344 319.450562,595.575317 313.000000,601.000000 
	C307.645081,601.000000 302.290131,601.000000 296.467590,601.000000 
z"/>
<path fill="#2A577C" opacity="1.000000" stroke="none" 
	d="
M601.000000,35.535347 
	C580.897278,31.007053 566.201050,18.825626 555.142700,1.308768 
	C559.689270,1.000000 564.378479,1.000000 569.634460,1.323671 
	C578.241882,11.799395 587.656799,19.871937 601.000000,22.000000 
	C601.000000,26.356899 601.000000,30.713799 601.000000,35.535347 
z"/>
<path fill="#5893C1" opacity="1.000000" stroke="none" 
	d="
M517.468628,601.000000 
	C521.635559,590.453857 530.244202,584.790771 541.156616,583.526184 
	C551.013916,582.383850 557.379089,588.921509 562.596680,596.439026 
	C563.442932,597.658264 564.055176,599.039917 564.887817,600.673218 
	C549.312439,601.000000 533.624878,601.000000 517.468628,601.000000 
z"/>
<path fill="#5893C1" opacity="1.000000" stroke="none" 
	d="
M601.000000,21.531088 
	C587.656799,19.871937 578.241882,11.799395 570.100586,1.323671 
	C580.245483,1.000000 590.490967,1.000000 601.000000,1.000000 
	C601.000000,7.685095 601.000000,14.373635 601.000000,21.531088 
z"/>
<path fill="#2A577D" opacity="1.000000" stroke="none" 
	d="
M170.536819,1.000000 
	C172.882339,7.170728 174.817566,13.326090 176.617050,19.520882 
	C177.211639,21.567791 178.206116,23.937065 177.669159,25.762175 
	C177.010727,28.000193 175.153809,31.194395 173.419800,31.467716 
	C171.366486,31.791367 167.874466,30.012486 166.815857,28.128164 
	C164.748505,24.448298 163.924576,20.066353 162.612915,15.966423 
	C161.097794,11.230530 159.611877,6.485292 158.056641,1.372056 
	C162.024551,1.000000 166.049088,1.000000 170.536819,1.000000 
z"/>
<path fill="#5692C0" opacity="1.000000" stroke="none" 
	d="
M353.666687,0.999997 
	C355.307220,2.129269 356.597260,3.279214 357.925049,4.383751 
	C361.269531,7.165921 364.631042,9.927597 368.297943,12.955255 
	C360.364807,17.950417 349.515594,16.694221 344.238922,10.965297 
	C341.561890,8.058858 340.740784,4.947229 343.803223,1.313283 
	C346.041656,1.000000 348.083344,1.000000 350.674500,1.114878 
	C351.223969,1.229756 351.670441,1.308555 351.670441,1.308555 
	C351.670441,1.308555 352.000000,1.000000 352.000000,1.000000 
	C352.444458,1.000000 352.888885,1.000000 353.666687,0.999997 
z"/>
<path fill="#2A587E" opacity="1.000000" stroke="none" 
	d="
M1.000000,64.458069 
	C3.335185,64.265388 5.789266,64.171722 7.972898,64.894791 
	C10.263810,65.653381 12.241916,67.306618 14.453402,68.367310 
	C17.456743,69.807785 19.440956,71.874298 18.481808,75.352432 
	C17.460299,79.056694 14.265534,80.228340 11.049401,79.439484 
	C7.769625,78.635025 4.766717,76.701775 1.321295,75.131363 
	C1.000000,71.638710 1.000000,68.277428 1.000000,64.458069 
z"/>
<path fill="#5491BF" opacity="1.000000" stroke="none" 
	d="
M313.468628,601.000000 
	C319.450562,595.575317 327.931152,595.402344 336.743835,600.760498 
	C329.312408,601.000000 321.624847,601.000000 313.468628,601.000000 
z"/>
<path fill="#5491BF" opacity="1.000000" stroke="none" 
	d="
M601.000000,366.535339 
	C598.267883,367.242004 595.535767,367.484009 591.559570,367.836182 
	C594.852661,362.457916 597.639282,357.906738 600.713013,353.177795 
	C601.000000,357.356903 601.000000,361.713806 601.000000,366.535339 
z"/>
<path fill="#5491BF" opacity="1.000000" stroke="none" 
	d="
M382.555847,1.000001 
	C381.944885,2.679168 380.889771,4.358332 379.369598,6.777561 
	C377.595581,4.531033 376.439423,3.066917 375.141632,1.301401 
	C377.370575,1.000000 379.741119,1.000000 382.555847,1.000001 
z"/>
<path fill="#2B577C" opacity="1.000000" stroke="none" 
	d="
M351.750000,1.000000 
	C352.000000,1.000000 351.670441,1.308555 351.670441,1.308555 
	C351.670441,1.308555 351.223969,1.229756 351.112000,1.114878 
	C351.000000,1.000000 351.500000,1.000000 351.750000,1.000000 
z"/>
<path fill="#2A577C" opacity="1.000000" stroke="none" 
	d="
M437.999969,548.049072 
	C436.754272,535.166260 435.517090,522.738220 434.356659,510.302917 
	C434.203491,508.661652 434.283325,506.960297 434.525452,505.326843 
	C435.806091,496.686768 441.695770,492.790558 449.557129,496.560364 
	C459.288757,501.227051 468.481750,507.023773 477.869904,512.397766 
	C484.592651,516.245972 491.253784,520.201843 497.942383,524.109619 
	C498.360504,523.793335 498.778656,523.476990 499.196777,523.160706 
	C498.650757,519.803345 498.293457,516.402039 497.524139,513.096680 
	C494.993896,502.225739 492.279602,491.397705 489.724609,480.532379 
	C489.272797,478.610962 488.567078,476.331635 489.194672,474.679565 
	C489.981537,472.608093 491.751312,469.990448 493.599304,469.499390 
	C495.460419,469.004883 498.085907,470.575531 500.079559,471.746735 
	C501.021729,472.300171 501.506744,473.979309 501.797821,475.240906 
	C505.391052,490.816101 508.971680,506.394897 512.387085,522.009644 
	C512.947205,524.570251 513.008789,527.337463 512.762817,529.958801 
	C511.960205,538.512329 506.118744,542.214905 498.394409,538.436523 
	C488.834564,533.760193 479.605957,528.388245 470.353424,523.108032 
	C463.175568,519.011780 456.180634,514.595093 449.104370,510.320892 
	C448.642059,510.566559 448.179718,510.812225 447.717407,511.057892 
	C448.296661,518.066833 448.906921,525.073364 449.448975,532.085144 
	C450.692993,548.177612 452.370911,564.255127 452.977966,580.372375 
	C453.450806,592.924866 447.443024,597.626953 435.577698,593.483582 
	C419.884735,588.003662 404.683716,581.113831 389.282684,574.802002 
	C388.525421,574.491638 387.821442,573.980896 387.188629,573.449158 
	C384.485138,571.177368 383.110901,568.393738 385.175446,565.125671 
	C387.117035,562.052185 389.981415,562.149841 393.105896,563.465820 
	C404.926086,568.444214 416.760162,573.391846 428.644714,578.213867 
	C431.991760,579.571899 435.528839,580.461670 440.742218,582.130737 
	C439.773224,570.104980 438.902863,559.303223 437.999969,548.049072 
z"/>
<path fill="#2A577C" opacity="1.000000" stroke="none" 
	d="
M144.140808,437.114746 
	C141.221542,435.827362 137.843307,435.221313 136.446533,433.227295 
	C134.918045,431.045197 134.184052,427.249664 134.980148,424.756409 
	C136.040314,421.436157 139.586075,421.718231 142.711929,422.731567 
	C172.348282,432.339233 192.934067,413.845673 197.525223,391.195465 
	C201.732849,370.437439 189.031555,349.538025 168.507156,344.089142 
	C164.600830,343.052094 161.377838,341.674103 162.152191,336.851685 
	C162.744186,333.164825 166.994202,331.391510 171.903122,332.546661 
	C191.921967,337.257385 208.264923,356.004517 210.900345,377.280701 
	C213.982040,402.159729 199.029221,426.854370 175.609085,435.533752 
	C165.434174,439.304474 155.009476,438.570709 144.140808,437.114746 
z"/>
<path fill="#2A577C" opacity="1.000000" stroke="none" 
	d="
M570.432495,444.075684 
	C577.098511,444.783234 578.982178,448.710449 575.161987,454.034943 
	C566.812744,465.671936 562.323120,478.694733 559.790955,492.668549 
	C556.655457,509.971375 563.753723,522.389404 577.394592,532.025513 
	C579.160950,533.273315 581.729553,534.065369 582.590393,535.750916 
	C583.795532,538.110413 584.849365,541.632019 583.885498,543.673096 
	C583.106445,545.322815 579.000183,546.604797 576.815918,546.104126 
	C573.577332,545.361633 570.543457,543.158997 567.751648,541.125793 
	C549.127991,527.562805 542.989319,509.417725 548.007263,487.114136 
	C551.075378,473.476929 555.791565,460.578796 564.158875,449.265625 
	C565.669434,447.223236 568.062195,445.833252 570.432495,444.075684 
z"/>
<path fill="#2A577D" opacity="1.000000" stroke="none" 
	d="
M499.959229,336.992920 
	C497.356079,330.705078 494.592407,324.830963 492.665497,318.694092 
	C491.241028,314.157318 493.387207,310.523438 496.910278,310.024384 
	C501.379333,309.391296 503.190063,312.202301 504.053040,315.991791 
	C506.714203,327.677277 512.831299,336.694458 523.843994,342.080200 
	C530.913879,345.537689 538.323425,345.615265 545.831543,344.520599 
	C551.987610,343.623047 555.192505,344.844208 555.904724,348.794708 
	C556.632141,352.829559 553.643738,356.018799 547.963501,357.269623 
	C530.056396,361.212952 511.418854,353.425232 499.959229,336.992920 
z"/>
<path fill="#2A577D" opacity="1.000000" stroke="none" 
	d="
M76.739609,363.269287 
	C75.002922,361.936859 72.913658,361.104675 72.259911,359.634247 
	C71.297256,357.469086 70.282562,354.147949 71.280632,352.616394 
	C72.312622,351.032745 76.585602,349.640167 77.951950,350.508026 
	C86.626556,356.018005 95.086273,361.930542 103.105110,368.349579 
	C104.549347,369.505676 104.771675,374.424225 103.538017,376.210663 
	C101.179413,379.626190 97.314453,378.546783 94.226250,376.302399 
	C88.443100,372.099457 82.756035,367.764282 76.739609,363.269287 
z"/>
<path fill="#2A597F" opacity="1.000000" stroke="none" 
	d="
M55.344841,539.169678 
	C54.134472,540.539246 53.088467,542.408875 52.044556,542.407654 
	C49.448547,542.404785 46.275936,542.257141 44.466358,540.780762 
	C43.309719,539.837036 43.216324,535.348450 44.336121,534.356140 
	C46.247025,532.662903 49.607765,531.540405 52.137970,531.871338 
	C55.586540,532.322449 56.600956,535.399719 55.344841,539.169678 
z"/>
<path fill="#2A5A81" opacity="1.000000" stroke="none" 
	d="
M24.128717,189.085876 
	C23.888838,191.661346 24.166653,194.574142 22.842623,196.017303 
	C20.430300,198.646683 16.932079,199.056198 14.092207,196.191940 
	C11.776177,193.856033 11.939774,191.142548 14.044373,188.645874 
	C16.644352,185.561539 19.892719,185.626724 24.128717,189.085876 
z"/>
<path fill="#2A5A81" opacity="1.000000" stroke="none" 
	d="
M482.616425,560.713989 
	C480.922211,561.952881 479.205536,563.861450 477.946381,563.596436 
	C475.616730,563.106079 472.821503,561.809998 471.636902,559.948120 
	C470.834045,558.686218 471.797485,555.032166 473.154449,553.992310 
	C474.776245,552.749512 477.947510,552.336182 479.931549,553.032959 
	C483.046783,554.127014 484.267944,556.992981 482.616425,560.713989 
z"/>
<path fill="#2A597F" opacity="1.000000" stroke="none" 
	d="
M163.346863,379.184357 
	C163.940491,378.781586 164.210892,378.568451 164.518158,378.466736 
	C167.963852,377.326263 171.253906,378.065399 172.362091,381.450562 
	C172.998642,383.395050 172.062607,387.352325 170.624573,388.111389 
	C168.681488,389.137115 164.997925,388.814697 163.100067,387.532684 
	C160.044662,385.468811 160.402283,382.170258 163.346863,379.184357 
z"/>
<path fill="#2A5A81" opacity="1.000000" stroke="none" 
	d="
M576.796631,104.886124 
	C571.014404,104.017273 568.376831,100.057861 571.244568,96.702202 
	C572.491699,95.242905 575.206909,94.279739 577.150146,94.432220 
	C578.515503,94.539360 580.363892,96.719902 580.827393,98.314423 
	C581.694824,101.298851 580.508484,103.834549 576.796631,104.886124 
z"/>
<path fill="#4A8ABA" opacity="1.000000" stroke="none" 
	d="
M332.034424,555.054626 
	C330.829834,556.549072 329.625244,558.043457 328.213928,559.782593 
	C327.233490,559.047058 326.459747,558.066711 325.338867,557.044434 
	C327.126923,555.786438 329.262115,554.570435 331.713898,553.568848 
	C332.031799,554.207031 332.033112,554.630859 332.034424,555.054626 
z"/>
<path fill="#FCFDFB" opacity="1.000000" stroke="none" 
	d="
M247.429489,181.346802 
	C265.785919,186.664139 275.155579,199.078629 277.183014,217.210342 
	C280.312134,245.194901 267.638092,264.832367 239.565201,272.699799 
	C208.650970,281.363464 180.370468,275.592926 157.051605,252.385498 
	C143.786514,239.183823 137.321152,222.397263 135.058945,204.154572 
	C128.365433,150.177078 150.085358,109.148972 193.921875,79.065956 
	C217.493973,62.889507 243.386551,51.286156 271.996796,47.615562 
	C314.517731,42.160278 356.281036,44.294872 395.139038,64.929649 
	C419.873962,78.064674 441.604828,94.789955 456.013336,119.633041 
	C464.696564,134.604630 467.622314,151.062454 469.157196,167.887375 
	C472.334900,202.720047 462.282867,234.549301 447.689423,265.651825 
	C433.618561,295.640533 412.529480,319.480133 387.481720,340.526245 
	C371.844940,353.664856 354.838806,364.638702 337.567566,375.359619 
	C331.810883,378.933014 326.510986,383.304291 321.301727,387.668213 
	C319.106415,389.507355 317.685852,392.271362 315.614838,395.009308 
	C323.544281,398.593323 330.958893,398.694092 338.516479,396.556976 
	C340.435852,396.014252 342.322479,395.343506 344.197235,394.657928 
	C347.882782,393.310181 351.517303,392.809540 354.047913,396.562134 
	C356.483093,400.173248 355.435455,404.059174 352.618347,406.586670 
	C346.957977,411.665161 341.161102,416.819702 334.679749,420.707947 
	C320.837097,429.012299 305.698761,433.990540 289.570618,435.832855 
	C253.755890,439.923950 226.749359,410.086578 233.407318,373.563202 
	C236.955841,354.097168 246.156326,336.917542 257.994934,321.650360 
	C275.321350,299.306000 294.170044,278.143219 312.334534,256.447205 
	C325.469147,240.758987 339.271027,225.559402 351.428680,209.144516 
	C361.914368,194.987091 366.128754,178.249939 364.150574,160.445114 
	C362.314484,143.919266 353.273163,132.659912 337.640839,127.369423 
	C298.860107,114.244720 260.268097,129.096664 239.442093,167.996704 
	C237.662811,171.320160 237.301254,175.402634 236.210968,179.388931 
	C240.518967,180.119263 243.778549,180.671860 247.429489,181.346802 
M325.637146,58.889011 
	C285.439789,55.572968 247.287231,61.743816 212.245819,82.923119 
	C197.500259,91.835472 183.029968,100.983307 172.462555,115.030891 
	C149.544617,145.496399 139.880966,178.703705 150.952545,216.442551 
	C162.821091,256.897858 211.719589,276.467407 247.572159,255.135208 
	C260.478149,247.456177 265.860901,236.305283 264.755035,221.679123 
	C263.350922,203.108032 252.787109,192.504120 234.732681,192.303070 
	C220.927505,192.149307 208.055664,195.830307 196.753662,204.130646 
	C195.680771,204.918579 194.628250,206.326157 193.529388,206.363617 
	C191.244080,206.441498 188.097260,206.561951 186.870285,205.226410 
	C185.652451,203.900833 185.650406,200.533432 186.417160,198.569870 
	C187.181961,196.611221 189.408920,195.074875 191.260101,193.714325 
	C200.143036,187.185806 210.204346,183.422607 220.924347,181.121048 
	C222.424286,180.799011 224.732513,179.076538 224.772797,177.935440 
	C225.105515,168.511734 229.176300,160.615494 234.127533,152.990921 
	C259.088135,114.553345 303.492889,99.557503 344.409515,116.105835 
	C364.500214,124.231316 375.406677,139.492294 377.183258,161.138367 
	C379.029510,183.633469 372.549133,204.013580 358.891296,221.433914 
	C344.111511,240.285309 327.889740,258.014618 312.121552,276.080292 
	C295.693695,294.901733 278.255951,312.902954 264.903992,334.201904 
	C255.764648,348.780914 246.715668,363.577454 245.605591,381.318604 
	C244.871323,393.053589 246.917160,404.513824 256.334534,412.829681 
	C265.970734,421.338745 277.657074,425.074005 290.234680,422.482147 
	C300.905396,420.283264 311.207428,416.279999 321.644897,412.987366 
	C322.699402,412.654694 323.562775,411.716095 325.184204,410.596558 
	C313.597321,408.605988 303.978088,404.713043 296.452209,396.780396 
	C289.801331,389.770020 285.722321,381.545074 285.863892,371.661194 
	C285.928558,367.148010 289.445099,363.994629 292.817535,365.759155 
	C294.764923,366.778107 296.484650,369.502228 296.992493,371.755157 
	C298.315765,377.625488 299.891510,383.172974 304.834991,387.861755 
	C312.931427,374.449097 325.791046,367.618622 337.957855,359.741913 
	C351.078308,351.247925 364.075958,342.435211 376.316803,332.738586 
	C401.252167,312.986115 422.216095,289.918396 435.777161,260.497894 
	C448.046173,233.880493 457.813324,206.827133 456.753204,177.037125 
	C455.921722,153.671402 451.730377,131.154083 435.622284,112.856804 
	C406.695862,79.999168 370.031525,62.527328 325.637146,58.889011 
z"/>
<path fill="#5693C1" opacity="1.000000" stroke="none" 
	d="
M298.696411,193.120087 
	C303.706818,200.281357 308.698547,201.851730 315.402893,197.248535 
	C321.809692,192.849640 327.649353,187.550659 333.376526,182.255936 
	C339.718170,176.393127 345.649292,170.086304 352.723907,163.007507 
	C352.863678,166.077637 353.063263,168.069290 353.027222,170.056656 
	C352.786957,183.309158 348.733582,195.149979 340.093567,205.364120 
	C329.671051,217.685486 319.445007,230.173676 308.967194,242.447372 
	C304.136230,248.106354 298.909180,253.427261 292.779510,260.075195 
	C291.667572,249.974945 285.793304,243.119232 287.208527,233.160339 
	C290.862396,207.447571 281.044769,187.260345 258.475586,173.722260 
	C257.795837,173.314499 257.192688,172.779099 255.862656,171.788406 
	C266.320679,161.896118 276.488312,152.278503 286.655945,142.660904 
	C287.229218,142.858459 287.802490,143.056015 288.375732,143.253571 
	C289.582855,149.189362 290.781219,155.126938 291.998932,161.060547 
	C294.169281,171.635773 296.351318,182.208588 298.696411,193.120087 
z"/>
<path fill="#FCFDFB" opacity="1.000000" stroke="none" 
	d="
M333.354919,538.344482 
	C307.462311,565.590881 261.993347,554.541931 252.081955,517.754456 
	C246.248276,496.101929 256.672607,473.210907 276.728516,463.005920 
	C296.806641,452.789612 321.072510,457.916473 335.450226,475.412598 
	C349.691162,492.742310 349.877045,517.394592 335.890869,535.445801 
	C335.178284,536.365479 334.369415,537.210571 333.354919,538.344482 
M273.982513,530.525574 
	C286.122559,541.766113 302.107483,543.820251 315.851318,535.905884 
	C328.897736,528.393127 335.786499,512.841370 332.495575,498.330688 
	C329.158234,483.615601 317.449493,472.849823 302.874725,471.095490 
	C288.200500,469.329193 274.219421,476.578888 267.482483,489.447601 
	C260.388855,502.997650 262.637390,518.220703 273.982513,530.525574 
z"/>
<path fill="#5793C1" opacity="1.000000" stroke="none" 
	d="
M371.568481,442.335022 
	C382.188141,450.638000 386.679443,461.871460 388.657135,474.332611 
	C388.859283,475.606171 387.479431,478.249512 386.506622,478.422943 
	C372.043243,481.001831 357.816864,480.857697 345.992218,470.610535 
	C337.825195,463.533020 336.993683,452.798584 342.983856,444.553009 
	C348.815704,436.525360 358.005615,434.851074 367.870758,440.048828 
	C369.043488,440.666687 370.137878,441.433258 371.568481,442.335022 
z"/>
<path fill="#5692C0" opacity="1.000000" stroke="none" 
	d="
M447.945648,286.900055 
	C453.353607,275.817474 458.654724,265.087860 463.757538,254.264709 
	C465.041504,251.541321 466.638367,250.209930 469.763336,250.072159 
	C473.217590,249.919876 476.694702,249.272339 480.061218,248.435608 
	C483.267578,247.638641 484.620758,248.602921 485.162567,251.822037 
	C487.581390,266.193390 484.092407,278.994781 474.541077,289.850616 
	C463.496765,302.403381 448.554321,308.544952 433.142975,313.695526 
	C432.738647,313.830627 432.203766,313.574951 430.727844,313.346405 
	C436.576355,304.377411 442.170868,295.797882 447.945648,286.900055 
z"/>
<path fill="#5793C1" opacity="1.000000" stroke="none" 
	d="
M305.043518,159.952606 
	C303.332825,151.390915 301.667450,143.262878 299.989014,135.071075 
	C310.664642,130.167099 338.048523,137.954056 347.900848,149.517532 
	C335.721069,161.488098 323.488556,173.510498 311.256012,185.532898 
	C310.582977,185.250656 309.909943,184.968414 309.236908,184.686172 
	C307.854218,176.586212 306.471527,168.486237 305.043518,159.952606 
z"/>
<path fill="#5692C0" opacity="1.000000" stroke="none" 
	d="
M332.382141,554.972900 
	C332.033112,554.630859 332.031799,554.207031 332.036743,553.466675 
	C353.479828,537.519043 358.880280,515.990784 354.711670,490.756958 
	C360.785095,491.468384 366.641113,492.392487 372.531860,492.758667 
	C376.313904,492.993774 380.171692,492.605316 383.950500,492.134827 
	C387.959259,491.635681 389.336853,492.668732 388.568176,496.991180 
	C386.041382,511.199890 379.600494,523.397461 368.186096,531.954041 
	C356.949982,540.376953 344.594269,547.306335 332.382141,554.972900 
z"/>
<path fill="#5793C1" opacity="1.000000" stroke="none" 
	d="
M93.656952,44.698936 
	C99.308434,37.147961 106.317635,31.846987 114.886971,29.085165 
	C117.472488,28.251873 121.537041,28.601839 123.414101,30.192101 
	C124.634048,31.225647 124.041367,36.067459 122.683876,38.198620 
	C114.963623,50.318851 102.987617,56.025398 89.395882,58.924301 
	C88.830803,59.044823 88.159050,58.665199 86.265762,58.218956 
	C88.813698,53.514511 91.124542,49.247822 93.656952,44.698936 
z"/>
<path fill="#5692C0" opacity="1.000000" stroke="none" 
	d="
M158.725037,73.556953 
	C164.729645,73.345963 167.467361,77.665672 165.518646,83.586815 
	C163.401794,90.018806 152.567642,98.243790 145.445251,98.825958 
	C143.688522,88.981712 149.260132,78.136139 158.725037,73.556953 
z"/>
<path fill="#4E8EBC" opacity="1.000000" stroke="none" 
	d="
M314.053589,442.041321 
	C319.822479,440.358643 325.218719,438.835541 331.196167,437.148376 
	C329.214478,442.887207 327.385345,448.184265 325.342163,454.101166 
	C316.591644,449.027283 307.838470,444.870758 297.394562,447.327179 
	C297.454407,446.897156 297.514252,446.467102 297.574097,446.037048 
	C302.943054,444.758331 308.312012,443.479584 314.053589,442.041321 
z"/>
<path fill="#4A8ABA" opacity="1.000000" stroke="none" 
	d="
M196.781158,284.491394 
	C206.804901,285.269135 216.505341,285.979431 226.205765,286.689728 
	C226.336044,286.950256 226.466339,287.210754 226.596619,287.471283 
	C223.103531,288.521912 219.669327,290.131042 216.105103,290.506836 
	C208.718262,291.285675 201.630508,289.944794 195.468124,285.380341 
	C195.345657,285.289612 195.382828,284.703308 195.528641,284.595123 
	C195.755753,284.426666 196.140137,284.470215 196.781158,284.491394 
z"/>
<path fill="#4A8ABA" opacity="1.000000" stroke="none" 
	d="
M470.839722,234.592102 
	C471.853455,232.180923 472.744202,230.099823 473.997986,227.170593 
	C475.961700,229.912064 477.516968,232.083359 479.101349,234.295227 
	C473.925110,237.425980 472.671936,237.473831 470.839722,234.592102 
z"/>
<path fill="#5793C1" opacity="1.000000" stroke="none" 
	d="
M25.959808,430.953583 
	C26.301949,422.532227 31.080540,417.244232 37.931385,414.889771 
	C44.693039,412.566040 52.076096,411.911987 59.249935,411.058014 
	C60.491653,410.910217 62.923843,413.188782 63.315563,414.726349 
	C65.550026,423.496704 62.750706,430.855713 55.679798,436.345520 
	C49.904400,440.829498 43.467773,443.860168 35.825161,442.222534 
	C29.680729,440.905975 26.982325,437.827606 25.959808,430.953583 
z"/>
<path fill="#F8E257" opacity="1.000000" stroke="none" 
	d="
M326.102509,58.914398 
	C370.031525,62.527328 406.695862,79.999168 435.622284,112.856804 
	C451.730377,131.154083 455.921722,153.671402 456.753204,177.037125 
	C457.813324,206.827133 448.046173,233.880493 435.777161,260.497894 
	C422.216095,289.918396 401.252167,312.986115 376.316803,332.738586 
	C364.075958,342.435211 351.078308,351.247925 337.957855,359.741913 
	C325.791046,367.618622 312.931427,374.449097 304.834991,387.861755 
	C299.891510,383.172974 298.315765,377.625488 296.992493,371.755157 
	C296.484650,369.502228 294.764923,366.778107 292.817535,365.759155 
	C289.445099,363.994629 285.928558,367.148010 285.863892,371.661194 
	C285.722321,381.545074 289.801331,389.770020 296.452209,396.780396 
	C303.978088,404.713043 313.597321,408.605988 325.184204,410.596558 
	C323.562775,411.716095 322.699402,412.654694 321.644897,412.987366 
	C311.207428,416.279999 300.905396,420.283264 290.234680,422.482147 
	C277.657074,425.074005 265.970734,421.338745 256.334534,412.829681 
	C246.917160,404.513824 244.871323,393.053589 245.605591,381.318604 
	C246.715668,363.577454 255.764648,348.780914 264.903992,334.201904 
	C278.255951,312.902954 295.693695,294.901733 312.121552,276.080292 
	C327.889740,258.014618 344.111511,240.285309 358.891296,221.433914 
	C372.549133,204.013580 379.029510,183.633469 377.183258,161.138367 
	C375.406677,139.492294 364.500214,124.231316 344.409515,116.105835 
	C303.492889,99.557503 259.088135,114.553345 234.127533,152.990921 
	C229.176300,160.615494 225.105515,168.511734 224.772797,177.935440 
	C224.732513,179.076538 222.424286,180.799011 220.924347,181.121048 
	C210.204346,183.422607 200.143036,187.185806 191.260101,193.714325 
	C189.408920,195.074875 187.181961,196.611221 186.417160,198.569870 
	C185.650406,200.533432 185.652451,203.900833 186.870285,205.226410 
	C188.097260,206.561951 191.244080,206.441498 193.529388,206.363617 
	C194.628250,206.326157 195.680771,204.918579 196.753662,204.130646 
	C208.055664,195.830307 220.927505,192.149307 234.732681,192.303070 
	C252.787109,192.504120 263.350922,203.108032 264.755035,221.679123 
	C265.860901,236.305283 260.478149,247.456177 247.572159,255.135208 
	C211.719589,276.467407 162.821091,256.897858 150.952545,216.442551 
	C139.880966,178.703705 149.544617,145.496399 172.462555,115.030891 
	C183.029968,100.983307 197.500259,91.835472 212.245819,82.923119 
	C247.287231,61.743816 285.439789,55.572968 326.102509,58.914398 
M218.312576,103.065094 
	C217.693649,96.651245 213.684601,94.208344 207.999268,97.600349 
	C200.585907,102.023331 193.274490,106.770859 186.565338,112.180138 
	C178.841812,118.407234 172.918610,126.321358 169.547256,135.823395 
	C168.289185,139.369186 168.312042,143.108322 172.488083,144.684906 
	C176.631744,146.249283 178.654572,143.591080 180.464172,140.034210 
	C182.781235,135.479889 185.097809,130.468552 188.770462,127.158623 
	C195.759003,120.860298 203.749802,115.681778 211.237717,109.925453 
	C213.677856,108.049606 215.848251,105.822868 218.312576,103.065094 
M431.407715,130.133636 
	C428.043976,125.819038 424.812286,121.392014 421.269470,117.229813 
	C418.950562,114.505508 415.745361,113.770172 412.873047,116.212540 
	C409.925659,118.718712 410.653107,121.841797 412.692627,124.699173 
	C413.656128,126.049026 414.993042,127.177811 415.750000,128.622040 
	C419.800903,136.350830 424.314026,143.917496 427.459442,152.009720 
	C429.257172,156.634644 428.680145,162.162781 429.309174,167.267395 
	C429.953827,172.499298 432.447174,175.176422 436.129639,174.862595 
	C439.875031,174.543427 442.014435,171.377335 441.761230,166.326553 
	C441.129272,153.720795 438.610809,141.632385 431.407715,130.133636 
M250.882339,226.481064 
	C246.993011,225.224747 244.300873,226.806961 242.779404,230.293137 
	C238.440735,240.234375 230.713547,244.395782 220.135239,244.231354 
	C216.558502,244.175766 213.290817,245.395767 213.155350,249.714478 
	C213.021851,253.970215 216.155151,255.338745 219.707550,255.826080 
	C233.132614,257.667755 248.778580,248.406601 253.474304,235.841888 
	C254.719162,232.510910 254.881027,229.292282 250.882339,226.481064 
M260.082733,405.364014 
	C263.236023,408.061188 266.203766,411.024506 269.591400,413.385468 
	C273.482819,416.097626 277.441498,415.517334 279.217468,412.332397 
	C281.361908,408.486633 279.739227,405.389740 276.379242,403.452637 
	C266.885834,397.979401 263.984650,389.705292 265.290192,379.313507 
	C265.717865,375.909454 264.844818,372.743256 260.879578,372.091339 
	C256.708771,371.405701 254.701401,374.130280 254.079498,377.763733 
	C252.419601,387.461731 253.448654,396.680756 260.082733,405.364014 
z"/>
<path fill="#F8E258" opacity="1.000000" stroke="none" 
	d="
M273.728851,530.272400 
	C262.637390,518.220703 260.388855,502.997650 267.482483,489.447601 
	C274.219421,476.578888 288.200500,469.329193 302.874725,471.095490 
	C317.449493,472.849823 329.158234,483.615601 332.495575,498.330688 
	C335.786499,512.841370 328.897736,528.393127 315.851318,535.905884 
	C302.107483,543.820251 286.122559,541.766113 273.728851,530.272400 
M304.730774,490.745239 
	C308.823334,493.026367 312.912659,495.182739 314.056366,500.448364 
	C314.820770,503.967621 317.256622,506.049072 321.023987,505.233551 
	C324.870911,504.400757 325.657959,501.349762 325.366638,497.882355 
	C324.786041,490.971161 317.047485,482.136841 310.114014,481.176239 
	C307.992065,480.882294 304.537598,481.721710 303.657318,483.206482 
	C302.669220,484.873047 303.905518,487.858368 304.730774,490.745239 
z"/>
<path fill="#FEFEFA" opacity="1.000000" stroke="none" 
	d="
M218.227295,103.410851 
	C215.848251,105.822868 213.677856,108.049606 211.237717,109.925453 
	C203.749802,115.681778 195.759003,120.860298 188.770462,127.158623 
	C185.097809,130.468552 182.781235,135.479889 180.464172,140.034210 
	C178.654572,143.591080 176.631744,146.249283 172.488083,144.684906 
	C168.312042,143.108322 168.289185,139.369186 169.547256,135.823395 
	C172.918610,126.321358 178.841812,118.407234 186.565338,112.180138 
	C193.274490,106.770859 200.585907,102.023331 207.999268,97.600349 
	C213.684601,94.208344 217.693649,96.651245 218.227295,103.410851 
z"/>
<path fill="#FEFDF8" opacity="1.000000" stroke="none" 
	d="
M431.605835,130.441742 
	C438.610809,141.632385 441.129272,153.720795 441.761230,166.326553 
	C442.014435,171.377335 439.875031,174.543427 436.129639,174.862595 
	C432.447174,175.176422 429.953827,172.499298 429.309174,167.267395 
	C428.680145,162.162781 429.257172,156.634644 427.459442,152.009720 
	C424.314026,143.917496 419.800903,136.350830 415.750000,128.622040 
	C414.993042,127.177811 413.656128,126.049026 412.692627,124.699173 
	C410.653107,121.841797 409.925659,118.718712 412.873047,116.212540 
	C415.745361,113.770172 418.950562,114.505508 421.269470,117.229813 
	C424.812286,121.392014 428.043976,125.819038 431.605835,130.441742 
z"/>
<path fill="#FEFEFA" opacity="1.000000" stroke="none" 
	d="
M251.229828,226.673691 
	C254.881027,229.292282 254.719162,232.510910 253.474304,235.841888 
	C248.778580,248.406601 233.132614,257.667755 219.707550,255.826080 
	C216.155151,255.338745 213.021851,253.970215 213.155350,249.714478 
	C213.290817,245.395767 216.558502,244.175766 220.135239,244.231354 
	C230.713547,244.395782 238.440735,240.234375 242.779404,230.293137 
	C244.300873,226.806961 246.993011,225.224747 251.229828,226.673691 
z"/>
<path fill="#FEFEFA" opacity="1.000000" stroke="none" 
	d="
M259.856262,405.084015 
	C253.448654,396.680756 252.419601,387.461731 254.079498,377.763733 
	C254.701401,374.130280 256.708771,371.405701 260.879578,372.091339 
	C264.844818,372.743256 265.717865,375.909454 265.290192,379.313507 
	C263.984650,389.705292 266.885834,397.979401 276.379242,403.452637 
	C279.739227,405.389740 281.361908,408.486633 279.217468,412.332397 
	C277.441498,415.517334 273.482819,416.097626 269.591400,413.385468 
	C266.203766,411.024506 263.236023,408.061188 259.856262,405.084015 
z"/>
<path fill="#FEFEFA" opacity="1.000000" stroke="none" 
	d="
M304.452393,490.507599 
	C303.905518,487.858368 302.669220,484.873047 303.657318,483.206482 
	C304.537598,481.721710 307.992065,480.882294 310.114014,481.176239 
	C317.047485,482.136841 324.786041,490.971161 325.366638,497.882355 
	C325.657959,501.349762 324.870911,504.400757 321.023987,505.233551 
	C317.256622,506.049072 314.820770,503.967621 314.056366,500.448364 
	C312.912659,495.182739 308.823334,493.026367 304.452393,490.507599 
z"/>
</svg>